999
dxfrw 0.5.10
0
SECTION
2
HEADER
9
$ACADVER
1
AC1021
9
$HANDSEED
5
20000
9
$DWGCODEPAGE
3
ANSI_1252
9
$INSBASE
10
0
20
0
30
0
9
$EXTMIN
10
-12
20
-15.1
30
0
9
$EXTMAX
10
12.4878930887
20
16.125
30
0
9
$LIMMIN
10
0
20
0
9
$LIMMAX
10
420
20
297
9
$ORTHOMODE
70
0
9
$LTSCALE
40
1
9
$TEXTSTYLE
7
STANDARD
9
$CLAYER
8
exp0
9
$DIMASZ
40
0.5
9
$DIMLFAC
40
1
9
$DIMSCALE
40
1
9
$DIMEXO
40
0.125
9
$DIMEXE
40
0.25
9
$DIMTXT
40
1
9
$DIMTSZ
40
0
9
$DIMAUNIT
70
0
9
$DIMADEC
70
2
9
$DIMLUNIT
70
2
9
$DIMSTYLE
2
Standard
9
$DIMGAP
40
0.125
9
$DIMTIH
70
0
9
$LUNITS
70
2
9
$LUPREC
70
4
9
$AUNITS
70
0
9
$AUPREC
70
2
9
$SPLINESEGS
70
8
9
$GRIDMODE
70
1
9
$SNAPSTYLE
70
0
9
$GRIDUNIT
10
0
20
0
9
$PINSBASE
10
0
20
0
30
0
9
$PLIMMIN
10
0
20
0
9
$PLIMMAX
10
0.005334
20
0.0075438
9
$INSUNITS
70
5
9
$PSVPSCALE
40
1
0
ENDSEC
0
SECTION
2
CLASSES
0
ENDSEC
0
SECTION
2
TABLES
0
TABLE
2
VPORT
5
8
330
0
100
AcDbSymbolTable
70
1
0
VPORT
5
31
330
2
100
AcDbSymbolTableRecord
100
AcDbViewportTableRecord
2
*ACTIVE
70
0
10
0
20
0
11
1
21
1
12
8.8929951199
22
8.3421016169
13
0
23
0
14
10
24
10
15
10
25
10
16
0
26
0
36
1
17
0
27
0
37
0
40
33.722552291
41
0.933488914819
42
50
43
0
44
0
50
0
51
0
71
0
72
100
73
1
74
3
75
0
76
1
77
0
78
0
281
0
65
1
110
0
120
0
130
0
111
1
121
0
131
0
112
0
122
1
132
0
79
0
146
0
348
10020
60
7
61
5
292
1
282
1
141
0
142
0
63
250
421
3358443
0
ENDTAB
0
TABLE
2
LTYPE
5
5
330
0
100
AcDbSymbolTable
70
4
0
LTYPE
5
14
330
5
100
AcDbSymbolTableRecord
100
AcDbLinetypeTableRecord
2
ByBlock
70
0
3

72
65
73
0
40
0
0
LTYPE
5
15
330
5
100
AcDbSymbolTableRecord
100
AcDbLinetypeTableRecord
2
ByLayer
70
0
3

72
65
73
0
40
0
0
LTYPE
5
16
330
5
100
AcDbSymbolTableRecord
100
AcDbLinetypeTableRecord
2
Continuous
70
0
3
Solid line
72
65
73
0
40
0
0
LTYPE
5
32
330
5
100
AcDbSymbolTableRecord
100
AcDbLinetypeTableRecord
2
DOT
70
0
3
Dot . . . . . . . . . . . . . . . . . . . . . .
72
65
73
2
40
6.35
49
0
74
0
49
-6.35
74
0
0
LTYPE
5
33
330
5
100
AcDbSymbolTableRecord
100
AcDbLinetypeTableRecord
2
DOT2
70
0
3
Dot (.5x) .....................................
72
65
73
2
40
3.175
49
0
74
0
49
-3.175
74
0
0
LTYPE
5
34
330
5
100
AcDbSymbolTableRecord
100
AcDbLinetypeTableRecord
2
DOTX2
70
0
3
Dot (2x) .  .  .  .  .  .  .  .  .  .  .  .  .
72
65
73
2
40
12.7
49
0
74
0
49
-12.7
74
0
0
LTYPE
5
35
330
5
100
AcDbSymbolTableRecord
100
AcDbLinetypeTableRecord
2
DASHED
70
0
3
Dot . . . . . . . . . . . . . . . . . . . . . .
72
65
73
2
40
19.05
49
12.7
74
0
49
-6.35
74
0
0
LTYPE
5
36
330
5
100
AcDbSymbolTableRecord
100
AcDbLinetypeTableRecord
2
DASHED2
70
0
3
Dashed (.5x) _ _ _ _ _ _ _ _ _ _ _ _ _ _ _ _ _
72
65
73
2
40
9.525
49
6.35
74
0
49
-3.175
74
0
0
LTYPE
5
37
330
5
100
AcDbSymbolTableRecord
100
AcDbLinetypeTableRecord
2
DASHEDX2
70
0
3
Dashed (2x) ____  ____  ____  ____  ____  ___
72
65
73
2
40
38.1
49
25.4
74
0
49
-12.7
74
0
0
LTYPE
5
38
330
5
100
AcDbSymbolTableRecord
100
AcDbLinetypeTableRecord
2
DASHDOT
70
0
3
Dash dot __ . __ . __ . __ . __ . __ . __ . __
72
65
73
4
40
25.4
49
12.7
74
0
49
-6.35
74
0
49
0
74
0
49
-6.35
74
0
0
LTYPE
5
39
330
5
100
AcDbSymbolTableRecord
100
AcDbLinetypeTableRecord
2
DASHDOT2
70
0
3
Dash dot (.5x) _._._._._._._._._._._._._._._.
72
65
73
4
40
12.7
49
6.35
74
0
49
-3.175
74
0
49
0
74
0
49
-3.175
74
0
0
LTYPE
5
3A
330
5
100
AcDbSymbolTableRecord
100
AcDbLinetypeTableRecord
2
DASHDOTX2
70
0
3
Dash dot (2x) ____  .  ____  .  ____  .  ___
72
65
73
4
40
50.8
49
25.4
74
0
49
-12.7
74
0
49
0
74
0
49
-12.7
74
0
0
LTYPE
5
3B
330
5
100
AcDbSymbolTableRecord
100
AcDbLinetypeTableRecord
2
DIVIDE
70
0
3
Divide ____ . . ____ . . ____ . . ____ . . ____
72
65
73
6
40
31.75
49
12.7
74
0
49
-6.35
74
0
49
0
74
0
49
-6.35
74
0
49
0
74
0
49
-6.35
74
0
0
LTYPE
5
3C
330
5
100
AcDbSymbolTableRecord
100
AcDbLinetypeTableRecord
2
DIVIDE2
70
0
3
Divide (.5x) __..__..__..__..__..__..__..__.._
72
65
73
6
40
15.875
49
6.35
74
0
49
-3.175
74
0
49
0
74
0
49
-3.175
74
0
49
0
74
0
49
-3.175
74
0
0
LTYPE
5
3D
330
5
100
AcDbSymbolTableRecord
100
AcDbLinetypeTableRecord
2
DIVIDEX2
70
0
3
Divide (2x) ________  .  .  ________  .  .  _
72
65
73
6
40
63.5
49
25.4
74
0
49
-12.7
74
0
49
0
74
0
49
-12.7
74
0
49
0
74
0
49
-12.7
74
0
0
LTYPE
5
3E
330
5
100
AcDbSymbolTableRecord
100
AcDbLinetypeTableRecord
2
BORDER
70
0
3
Border __ __ . __ __ . __ __ . __ __ . __ __ .
72
65
73
6
40
44.45
49
12.7
74
0
49
-6.35
74
0
49
12.7
74
0
49
-6.35
74
0
49
0
74
0
49
-6.35
74
0
0
LTYPE
5
3F
330
5
100
AcDbSymbolTableRecord
100
AcDbLinetypeTableRecord
2
BORDER2
70
0
3
Border (.5x) __.__.__.__.__.__.__.__.__.__.__.
72
65
73
6
40
22.225
49
6.35
74
0
49
-3.175
74
0
49
6.35
74
0
49
-3.175
74
0
49
0
74
0
49
-3.175
74
0
0
LTYPE
5
40
330
5
100
AcDbSymbolTableRecord
100
AcDbLinetypeTableRecord
2
BORDERX2
70
0
3
Border (2x) ____  ____  .  ____  ____  .  ___
72
65
73
6
40
88.9
49
25.4
74
0
49
-12.7
74
0
49
25.4
74
0
49
-12.7
74
0
49
0
74
0
49
-12.7
74
0
0
LTYPE
5
41
330
5
100
AcDbSymbolTableRecord
100
AcDbLinetypeTableRecord
2
CENTER
70
0
3
Center ____ _ ____ _ ____ _ ____ _ ____ _ ____
72
65
73
4
40
50.8
49
31.75
74
0
49
-6.35
74
0
49
6.35
74
0
49
-6.35
74
0
0
LTYPE
5
42
330
5
100
AcDbSymbolTableRecord
100
AcDbLinetypeTableRecord
2
CENTER2
70
0
3
Center (.5x) ___ _ ___ _ ___ _ ___ _ ___ _ ___
72
65
73
4
40
28.575
49
19.05
74
0
49
-3.175
74
0
49
3.175
74
0
49
-3.175
74
0
0
LTYPE
5
43
330
5
100
AcDbSymbolTableRecord
100
AcDbLinetypeTableRecord
2
CENTERX2
70
0
3
Center (2x) ________  __  ________  __  _____
72
65
73
4
40
101.6
49
63.5
74
0
49
-12.7
74
0
49
12.7
74
0
49
-12.7
74
0
0
ENDTAB
0
TABLE
2
LAYER
5
2
330
0
100
AcDbSymbolTable
70
1
0
LAYER
5
10
330
2
100
AcDbSymbolTableRecord
100
AcDbLayerTableRecord
2
0
70
1
62
255
6
CONTINUOUS
370
25
390
F
0
LAYER
5
44
330
2
100
AcDbSymbolTableRecord
100
AcDbLayerTableRecord
2
exp0
70
0
62
255
6
CONTINUOUS
370
25
390
F
0
LAYER
5
45
330
2
100
AcDbSymbolTableRecord
100
AcDbLayerTableRecord
2
exp1
70
1
62
2
6
CONTINUOUS
370
25
390
F
0
LAYER
5
46
330
2
100
AcDbSymbolTableRecord
100
AcDbLayerTableRecord
2
exp2
70
1
62
3
6
CONTINUOUS
370
25
390
F
0
LAYER
5
47
330
2
100
AcDbSymbolTableRecord
100
AcDbLayerTableRecord
2
Phenolic
70
0
62
4
6
CONTINUOUS
370
25
390
F
0
ENDTAB
0
TABLE
2
STYLE
5
3
330
0
100
AcDbSymbolTable
70
3
0
STYLE
5
48
330
2
100
AcDbSymbolTableRecord
100
AcDbTextStyleTableRecord
2
textstyle2
70
0
40
0
41
1
50
0
71
0
42
1
3
textstyle2
4

0
STYLE
5
49
330
2
100
AcDbSymbolTableRecord
100
AcDbTextStyleTableRecord
2
textstyle0
70
0
40
0
41
1
50
0
71
0
42
1
3
textstyle0
4

0
STYLE
5
4A
330
2
100
AcDbSymbolTableRecord
100
AcDbTextStyleTableRecord
2
textstyle1
70
0
40
0
41
1
50
0
71
0
42
1
3
textstyle1
4

0
STYLE
5
4B
330
2
100
AcDbSymbolTableRecord
100
AcDbTextStyleTableRecord
2
Standard
70
0
40
0
41
1
50
0
71
0
42
1
3
txt
4

0
ENDTAB
0
TABLE
2
VIEW
5
6
330
0
100
AcDbSymbolTable
70
0
0
ENDTAB
0
TABLE
2
UCS
5
7
330
0
100
AcDbSymbolTable
70
0
0
ENDTAB
0
TABLE
2
APPID
5
9
330
0
100
AcDbSymbolTable
70
1
0
APPID
5
12
330
9
100
AcDbSymbolTableRecord
100
AcDbRegAppTableRecord
2
ACAD
70
0
0
ENDTAB
0
TABLE
2
DIMSTYLE
5
A
330
0
100
AcDbSymbolTable
70
1
100
AcDbDimStyleTable
71
1
0
DIMSTYLE
105
4C
330
A
100
AcDbSymbolTableRecord
100
AcDbDimStyleTableRecord
2
Standard
70
0
40
1
41
0.5
42
0.125
43
0.38
44
0.25
45
0
46
0
47
0
48
0
140
1
141
0.09
142
0
143
25.4
144
1
145
0
146
1
147
0.125
148
0
71
0
72
0
73
0
74
1
75
0
76
0
77
0
78
0
79
0
170
0
171
2
172
0
173
0
174
0
175
0
176
0
177
0
178
0
179
0
271
4
272
4
273
2
274
2
275
0
276
0
277
2
278
46
279
0
280
0
281
0
282
0
283
1
284
0
285
0
286
0
288
0
289
3
340
Standard
341

371
-2
372
-2
0
ENDTAB
0
TABLE
2
BLOCK_RECORD
5
1
330
0
100
AcDbSymbolTable
70
2
0
BLOCK_RECORD
5
1F
330
1
100
AcDbSymbolTableRecord
100
AcDbBlockTableRecord
2
*Model_Space
70
0
280
1
281
0
0
BLOCK_RECORD
5
1E
330
1
100
AcDbSymbolTableRecord
100
AcDbBlockTableRecord
2
*Paper_Space
70
0
280
1
281
0
0
BLOCK_RECORD
5
4D
330
1
100
AcDbSymbolTableRecord
100
AcDbBlockTableRecord
2
*D5
70
0
280
1
281
0
0
BLOCK_RECORD
5
50
330
1
100
AcDbSymbolTableRecord
100
AcDbBlockTableRecord
2
*D2
70
0
280
1
281
0
0
BLOCK_RECORD
5
53
330
1
100
AcDbSymbolTableRecord
100
AcDbBlockTableRecord
2
*D3
70
0
280
1
281
0
0
BLOCK_RECORD
5
56
330
1
100
AcDbSymbolTableRecord
100
AcDbBlockTableRecord
2
*D1
70
0
280
1
281
0
0
BLOCK_RECORD
5
59
330
1
100
AcDbSymbolTableRecord
100
AcDbBlockTableRecord
2
*D4
70
0
280
1
281
0
0
ENDTAB
0
ENDSEC
0
SECTION
2
BLOCKS
0
BLOCK
5
20
330
1F
100
AcDbEntity
8
0
100
AcDbBlockBegin
2
*Model_Space
70
0
10
0
20
0
30
0
3
*Model_Space
1

0
ENDBLK
5
21
330
1F
100
AcDbEntity
8
0
100
AcDbBlockEnd
0
BLOCK
5
1C
330
1B
100
AcDbEntity
8
0
100
AcDbBlockBegin
2
*Paper_Space
70
0
10
0
20
0
30
0
3
*Paper_Space
1

0
ENDBLK
5
1D
330
1F
100
AcDbEntity
8
0
100
AcDbBlockEnd
0
BLOCK
5
4E
330
4D
100
AcDbEntity
8
0
100
AcDbBlockBegin
2
*D5
70
1
10
0
20
0
3
*D5
1

0
LINE
5
5C
100
AcDbEntity
8
exp0
6
CONTINUOUS
62
7
370
0
100
AcDbLine
10
-0.108253175473
20
-3.9375
11
-1.03678892199
21
-3.4014096368
0
LINE
5
5D
100
AcDbEntity
8
exp0
6
CONTINUOUS
62
7
370
0
100
AcDbLine
10
-3.27518185347
20
-9.42278137424
11
-4.20371759998
21
-8.88669101104
0
LINE
5
5E
100
AcDbEntity
8
exp0
6
CONTINUOUS
62
7
370
0
100
AcDbLine
10
-0.82028257104
20
-3.5264096368
11
-3.98721124904
21
-9.01169101104
0
SOLID
5
5F
100
AcDbEntity
8
exp0
6
CONTINUOUS
62
7
370
0
100
AcDbTrace
10
-0.82028257104
20
-3.5264096368
30
0
11
-0.998179953272
21
-4.00105080447
31
0
12
-1.14238518881
22
-3.91779387291
32
0
13
-1.14238518881
23
-3.91779387291
33
0
0
SOLID
5
60
100
AcDbEntity
8
exp0
6
CONTINUOUS
62
7
370
0
100
AcDbTrace
10
-3.98721124904
20
-9.01169101104
30
0
11
-3.8093138668
21
-8.53704984337
31
0
12
-3.66510863127
22
-8.62030677492
32
0
13
-3.66510863127
23
-8.62030677492
33
0
0
MTEXT
5
61
100
AcDbEntity
8
exp0
6
CONTINUOUS
62
7
370
0
100
AcDbMText
10
-2.9450127874
20
-5.95655032392
30
0
40
1
41
3.88888888889
71
5
72
1
1
6.3339
7
standard
210
0
220
0
230
1
50
60
73
2
44
1
0
ENDBLK
5
4F
330
4D
100
AcDbEntity
8
0
100
AcDbBlockEnd
0
BLOCK
5
51
330
50
100
AcDbEntity
8
0
100
AcDbBlockBegin
2
*D2
70
1
10
0
20
0
3
*D2
1

0
LINE
5
62
100
AcDbEntity
8
exp1
6
CONTINUOUS
62
7
370
0
100
AcDbLine
10
0.974278579257
20
-3.4375
11
5.7889982529
21
-0.65772030035
0
LINE
5
63
100
AcDbEntity
8
exp1
6
CONTINUOUS
62
7
370
0
100
AcDbLine
10
-0.974278579257
20
-3.4375
11
-5.7889982529
21
-0.65772030035
0
ARC
5
64
100
AcDbEntity
8
exp1
6
CONTINUOUS
62
7
370
0
100
AcDbCircle
10
-8.881784197e-16
20
-4
40
6.4345593993
100
AcDbArc
50
30
51
150
0
SOLID
5
65
100
AcDbEntity
8
exp1
6
CONTINUOUS
62
7
370
0
100
AcDbTrace
10
5.57249190195
20
-0.78272030035
30
0
11
5.23542985725
21
-0.40414283843
31
0
12
5.37629232251
22
-0.315347385346
32
0
13
5.37629232251
23
-0.315347385346
33
0
0
SOLID
5
66
100
AcDbEntity
8
exp1
6
CONTINUOUS
62
7
370
0
100
AcDbTrace
10
-5.57249190195
20
-0.78272030035
30
0
11
-5.37629232251
21
-0.315347385346
31
0
12
-5.23542985725
22
-0.40414283843
32
0
13
-5.23542985725
23
-0.40414283843
33
0
0
MTEXT
5
67
100
AcDbEntity
8
exp1
6
CONTINUOUS
62
7
370
0
100
AcDbMText
10
-4.86521248592e-16
20
2.5595593993
30
0
40
1
41
2.44444444444
71
8
72
1
1
120%%D
7
standard
210
0
220
0
230
1
50
360
73
2
44
1
0
ENDBLK
5
52
330
50
100
AcDbEntity
8
0
100
AcDbBlockEnd
0
BLOCK
5
54
330
53
100
AcDbEntity
8
0
100
AcDbBlockBegin
2
*D3
70
1
10
0
20
0
3
*D3
1

0
LINE
5
68
100
AcDbEntity
8
Phenolic
6
CONTINUOUS
62
7
370
0
100
AcDbLine
10
-12
20
0.125
11
-12
21
15.25
0
LINE
5
69
100
AcDbEntity
8
Phenolic
6
CONTINUOUS
62
7
370
0
100
AcDbLine
10
12
20
0.125
11
12
21
15.25
0
LINE
5
6A
100
AcDbEntity
8
Phenolic
6
CONTINUOUS
62
7
370
0
100
AcDbLine
10
-12
20
15
11
12
21
15
0
SOLID
5
6B
100
AcDbEntity
8
Phenolic
6
CONTINUOUS
62
7
370
0
100
AcDbTrace
10
-12
20
15
30
0
11
-11.5
21
15.0832569316
31
0
12
-11.5
22
14.9167430684
32
0
13
-11.5
23
14.9167430684
33
0
0
SOLID
5
6C
100
AcDbEntity
8
Phenolic
6
CONTINUOUS
62
7
370
0
100
AcDbTrace
10
12
20
15
30
0
11
11.5
21
14.9167430684
31
0
12
11.5
22
15.0832569316
32
0
13
11.5
23
15.0832569316
33
0
0
MTEXT
5
6D
100
AcDbEntity
8
Phenolic
6
CONTINUOUS
62
7
370
0
100
AcDbMText
10
9.26448632173e-16
20
15.625
30
0
40
1
41
1.33333333333
71
5
72
1
1
24
7
standard
210
0
220
0
230
1
50
0
73
2
44
1
0
ENDBLK
5
55
330
53
100
AcDbEntity
8
0
100
AcDbBlockEnd
0
BLOCK
5
57
330
56
100
AcDbEntity
8
0
100
AcDbBlockBegin
2
*D1
70
1
10
0
20
0
3
*D1
1

0
LINE
5
6E
100
AcDbEntity
8
exp1
6
CONTINUOUS
62
7
370
0
100
AcDbLine
10
3.52320815427
20
-10.5523755288
11
5.83976714034
21
-17.49071107
0
LINE
5
6F
100
AcDbEntity
8
exp1
6
CONTINUOUS
62
7
370
0
100
AcDbLine
10
4.14120725725
20
-8.92278137424
11
10.4760481561
21
-5.26535927604
0
ARC
5
70
100
AcDbEntity
8
exp1
6
CONTINUOUS
62
7
370
0
100
AcDbCircle
10
3.166928678
20
-9.48528137424
40
8.1898441964
100
AcDbArc
50
288.463040967
51
30
0
SOLID
5
71
100
AcDbEntity
8
exp1
6
CONTINUOUS
62
7
370
0
100
AcDbTrace
10
5.76059392339
20
-17.2535790356
30
0
11
6.20103930241
21
-17.0027014066
31
0
12
6.25856904862
22
-17.15896143
32
0
13
6.25856904862
23
-17.15896143
33
0
0
SOLID
5
72
100
AcDbEntity
8
exp1
6
CONTINUOUS
62
7
370
0
100
AcDbTrace
10
10.2595418051
20
-5.39035927604
30
0
11
10.5695489772
21
-5.79139203023
31
0
12
10.4228698485
22
-5.8702089055
32
0
13
10.4228698485
23
-5.8702089055
33
0
0
MTEXT
5
73
100
AcDbEntity
8
exp1
6
CONTINUOUS
62
7
370
0
100
AcDbMText
10
10.7077264934
20
-12.3450156661
30
0
40
1
41
4.22222222222
71
8
72
1
1
101.54%%D
7
standard
210
0
220
0
230
1
50
69.2315204836
73
2
44
1
0
ENDBLK
5
58
330
56
100
AcDbEntity
8
0
100
AcDbBlockEnd
0
BLOCK
5
5A
330
59
100
AcDbEntity
8
0
100
AcDbBlockBegin
2
*D4
70
1
10
0
20
0
3
*D4
1

0
LINE
5
74
100
AcDbEntity
8
exp0
6
CONTINUOUS
62
7
370
0
100
AcDbLine
10
9.92043345827
20
2.025
11
12.2716183055
21
2.50493359722
0
LINE
5
75
100
AcDbEntity
8
exp0
6
CONTINUOUS
62
7
370
0
100
AcDbLine
10
6.7139181718
20
7.57884739142
11
8.30514528272
21
9.37506639948
0
ARC
5
76
100
AcDbEntity
8
exp0
6
CONTINUOUS
62
7
370
0
100
AcDbCircle
10
0
20
0
40
12.2746679861
100
AcDbArc
50
11.5369590328
51
48.4630409672
0
SOLID
5
77
100
AcDbEntity
8
exp0
6
CONTINUOUS
62
7
370
0
100
AcDbTrace
10
12.0266693312
20
2.45493359722
30
0
11
11.8354941733
21
2.92438410115
31
0
12
11.9979316997
22
2.96100262926
32
0
13
11.9979316997
23
2.96100262926
33
0
0
SOLID
5
78
100
AcDbEntity
8
exp0
6
CONTINUOUS
62
7
370
0
100
AcDbTrace
10
8.13936952539
20
9.18793436512
30
0
11
8.56326934748
21
8.91001233021
31
0
12
8.45033800865
22
8.78764656981
32
0
13
8.45033800865
23
8.78764656981
33
0
0
MTEXT
5
79
100
AcDbEntity
8
exp0
6
CONTINUOUS
62
7
370
0
100
AcDbMText
10
10.7384274744
20
6.19983399304
30
0
40
1
41
3.77777777778
71
8
72
1
1
36.93%%D
7
standard
210
0
220
0
230
1
50
300
73
2
44
1
0
ENDBLK
5
5B
330
59
100
AcDbEntity
8
0
100
AcDbBlockEnd
0
ENDSEC
0
SECTION
2
ENTITIES
0
CIRCLE
5
7A
100
AcDbEntity
8
Phenolic
6
ByLayer
62
256
370
-1
100
AcDbCircle
10
0
20
0
40
12
0
LINE
5
7B
100
AcDbEntity
8
0
6
ByLayer
62
256
370
-1
100
AcDbLine
10
0
20
0
11
50
21
86.6025403784
0
LINE
5
7C
100
AcDbEntity
8
0
6
ByLayer
62
256
370
-1
100
AcDbLine
10
0
20
0
11
-50
21
86.6025403784
0
LINE
5
7D
100
AcDbEntity
8
0
6
ByLayer
62
256
370
-1
100
AcDbLine
10
0
20
0
11
-100
21
1.22e-14
0
LINE
5
7E
100
AcDbEntity
8
0
6
ByLayer
62
256
370
-1
100
AcDbLine
10
0
20
0
11
-50
21
-86.6025403784
0
LINE
5
7F
100
AcDbEntity
8
0
6
ByLayer
62
256
370
-1
100
AcDbLine
10
0
20
0
11
50
21
-86.6025403784
0
LINE
5
80
100
AcDbEntity
8
0
6
ByLayer
62
256
370
-1
100
AcDbLine
10
0
20
0
11
100
21
-2.45e-14
0
LINE
5
81
100
AcDbEntity
8
0
6
ByLayer
62
256
370
-1
100
AcDbLine
10
-0.866025403784
20
0.5
11
-50.8660254038
21
-86.1025403784
0
LINE
5
82
100
AcDbEntity
8
0
6
ByLayer
62
256
370
-1
100
AcDbLine
10
0.866025403784
20
-0.5
11
-49.1339745962
21
-87.1025403784
0
LINE
5
83
100
AcDbEntity
8
0
6
ByLayer
62
256
370
-1
100
AcDbLine
10
-0.866025403784
20
-0.5
11
49.1339745962
21
-87.1025403784
0
LINE
5
84
100
AcDbEntity
8
0
6
ByLayer
62
256
370
-1
100
AcDbLine
10
0.866025403784
20
0.5
11
50.8660254038
21
-86.1025403784
0
LINE
5
85
100
AcDbEntity
8
0
6
ByLayer
62
256
370
-1
100
AcDbLine
10
-2e-16
20
-1
11
-100
21
-1
0
LINE
5
86
100
AcDbEntity
8
0
6
ByLayer
62
256
370
-1
100
AcDbLine
10
1e-16
20
1
11
-100
21
1
0
LINE
5
87
100
AcDbEntity
8
0
6
ByLayer
62
256
370
-1
100
AcDbLine
10
0.866025403784
20
-0.5
11
50.8660254038
21
86.1025403784
0
LINE
5
88
100
AcDbEntity
8
0
6
ByLayer
62
256
370
-1
100
AcDbLine
10
-0.866025403784
20
0.5
11
49.1339745962
21
87.1025403784
0
LINE
5
89
100
AcDbEntity
8
0
6
ByLayer
62
256
370
-1
100
AcDbLine
10
-0.866025403784
20
-0.5
11
-50.8660254038
21
86.1025403784
0
LINE
5
8A
100
AcDbEntity
8
0
6
ByLayer
62
256
370
-1
100
AcDbLine
10
0.866025403784
20
0.5
11
-49.1339745962
21
87.1025403784
0
LINE
5
8B
100
AcDbEntity
8
0
6
ByLayer
62
256
370
-1
100
AcDbLine
10
-2e-16
20
-1
11
100
21
-1
0
LINE
5
8C
100
AcDbEntity
8
0
6
ByLayer
62
256
370
-1
100
AcDbLine
10
3e-16
20
1
11
100
21
1
0
CIRCLE
5
8D
100
AcDbEntity
8
0
6
ByLayer
62
256
370
-1
100
AcDbCircle
10
0
20
0
40
11
0
CIRCLE
5
8E
100
AcDbEntity
8
0
6
ByLayer
62
256
370
-1
100
AcDbCircle
10
0
20
0
40
10
0
LINE
5
8F
100
AcDbEntity
8
0
6
ByLayer
62
256
370
-1
100
AcDbLine
10
-1.73205080757
20
-1
11
48.2679491924
21
-87.6025403784
0
LINE
5
90
100
AcDbEntity
8
0
6
ByLayer
62
256
370
-1
100
AcDbLine
10
1.73205080757
20
1
11
51.7320508076
21
-85.6025403784
0
LINE
5
91
100
AcDbEntity
8
0
6
ByLayer
62
256
370
-1
100
AcDbLine
10
1.73205080757
20
-1
11
-48.2679491924
21
-87.6025403784
0
LINE
5
92
100
AcDbEntity
8
0
6
ByLayer
62
256
370
-1
100
AcDbLine
10
-1.73205080757
20
1
11
-51.7320508076
21
-85.6025403784
0
LINE
5
93
100
AcDbEntity
8
0
6
ByLayer
62
256
370
-1
100
AcDbLine
10
-4e-16
20
-2
11
-100
21
-2
0
LINE
5
94
100
AcDbEntity
8
0
6
ByLayer
62
256
370
-1
100
AcDbLine
10
2e-16
20
2
11
-100
21
2
0
LINE
5
95
100
AcDbEntity
8
0
6
ByLayer
62
256
370
-1
100
AcDbLine
10
-1.73205080757
20
-1
11
-51.7320508076
21
85.6025403784
0
LINE
5
96
100
AcDbEntity
8
0
6
ByLayer
62
256
370
-1
100
AcDbLine
10
1.73205080757
20
1
11
-48.2679491924
21
87.6025403784
0
LINE
5
97
100
AcDbEntity
8
0
6
ByLayer
62
256
370
-1
100
AcDbLine
10
-1.73205080757
20
1
11
48.2679491924
21
87.6025403784
0
LINE
5
98
100
AcDbEntity
8
0
6
ByLayer
62
256
370
-1
100
AcDbLine
10
1.73205080757
20
-1
11
51.7320508076
21
85.6025403784
0
LINE
5
99
100
AcDbEntity
8
0
6
ByLayer
62
256
370
-1
100
AcDbLine
10
6e-16
20
2
11
100
21
2
0
LINE
5
9A
100
AcDbEntity
8
0
6
ByLayer
62
256
370
-1
100
AcDbLine
10
-4e-16
20
-2
11
100
21
-2
0
POINT
5
9B
100
AcDbEntity
8
exp0
6
ByLayer
62
256
370
-1
100
AcDbPoint
10
-3.166928678
20
-9.48528137424
0
POINT
5
9C
100
AcDbEntity
8
exp0
6
ByLayer
62
256
370
-1
100
AcDbPoint
10
3.166928678
20
-9.48528137424
0
ARC
5
9D
100
AcDbEntity
8
exp0
6
ByLayer
62
256
370
-1
100
AcDbCircle
10
0
20
0
40
10
100
AcDbArc
50
251.536959033
51
288.463040967
0
LINE
5
9E
100
AcDbEntity
8
exp0
6
ByLayer
62
256
370
-1
100
AcDbLine
10
3.166928678
20
-9.48528137424
11
-8e-16
21
-4
0
LINE
5
9F
100
AcDbEntity
8
exp0
6
ByLayer
62
256
370
-1
100
AcDbLine
10
-8e-16
20
-4
11
-3.166928678
21
-9.48528137424
0
ARC
5
A0
100
AcDbEntity
8
exp1
6
ByLayer
62
256
370
-1
100
AcDbCircle
10
0
20
0
40
11
100
AcDbArc
50
251.536959033
51
288.463040967
0
LINE
5
A1
100
AcDbEntity
8
exp1
6
ByLayer
62
256
370
-1
100
AcDbLine
10
-0.866025403784
20
-3.5
11
-4.03295408178
21
-8.98528137424
0
LINE
5
A2
100
AcDbEntity
8
exp1
6
ByLayer
62
256
370
-1
100
AcDbLine
10
4.03295408178
20
-8.98528137424
11
0.866025403784
21
-3.5
0
LINE
5
A3
100
AcDbEntity
8
exp2
6
ByLayer
62
256
370
-1
100
AcDbLine
10
4.89897948557
20
-8.48528137424
11
1.73205080757
21
-3
0
ARC
5
A4
100
AcDbEntity
8
exp2
6
ByLayer
62
256
370
-1
100
AcDbCircle
10
0
20
0
40
12
100
AcDbArc
50
251.536959033
51
288.463040967
0
LINE
5
A5
100
AcDbEntity
8
exp2
6
ByLayer
62
256
370
-1
100
AcDbLine
10
-1.73205080757
20
-3
11
-4.89897948557
21
-8.48528137424
0
ARC
5
A6
100
AcDbEntity
8
exp1
6
ByLayer
62
256
370
-1
100
AcDbCircle
10
3.166928678
20
-9.48528137424
40
1
100
AcDbArc
50
288.463040967
51
30
0
ARC
5
A7
100
AcDbEntity
8
exp1
6
ByLayer
62
256
370
-1
100
AcDbCircle
10
-3.166928678
20
-9.48528137424
40
1
100
AcDbArc
50
150
51
251.536959033
0
ARC
5
A8
100
AcDbEntity
8
exp1
6
ByLayer
62
256
370
-1
100
AcDbCircle
10
-8e-16
20
-4
40
1
100
AcDbArc
50
30
51
150
0
ARC
5
A9
100
AcDbEntity
8
exp2
6
ByLayer
62
256
370
-1
100
AcDbCircle
10
-3.166928678
20
-9.48528137424
40
2
100
AcDbArc
50
150
51
251.536959033
0
ARC
5
AA
100
AcDbEntity
8
exp2
6
ByLayer
62
256
370
-1
100
AcDbCircle
10
3.166928678
20
-9.48528137424
40
2
100
AcDbArc
50
288.463040967
51
30
0
ARC
5
AB
100
AcDbEntity
8
exp2
6
ByLayer
62
256
370
-1
100
AcDbCircle
10
-8e-16
20
-4
40
2
100
AcDbArc
50
30
51
150
0
DIMENSION
5
AC
100
AcDbEntity
8
exp1
6
ByLayer
62
256
370
-1
100
AcDbDimension
2
*D1
10
4.03295408178
20
-8.98528137424
30
0
11
10.4739712703
21
-12.2563675093
31
0
70
34
71
8
3
Standard
53
0
210
0
220
0
230
1
100
AcDb2LineAngularDimension
13
3.166928678
23
-9.48528137424
33
0
14
3.4836215458
24
-10.4338095117
34
0
15
3.166928678
25
-9.48528137424
35
0
16
10
26
-14
36
0
0
DIMENSION
5
AD
100
AcDbEntity
8
exp1
6
ByLayer
62
256
370
-1
100
AcDbDimension
2
*D2
10
-0.866025403784
20
-3.5
30
0
11
-1e-16
21
2.8095593993
31
0
70
34
71
8
3
Standard
53
0
210
0
220
0
230
1
100
AcDb2LineAngularDimension
13
-8e-16
23
-4
33
0
14
0.866025403784
24
-3.5
34
0
15
-8e-16
25
-4
35
0
16
0.00935761797691
26
2.43455259502
36
0
0
ARC
5
AE
100
AcDbEntity
8
exp0
6
ByLayer
62
256
370
-1
100
AcDbCircle
10
0
20
0
40
10
100
AcDbArc
50
311.536959033
51
348.463040967
0
LINE
5
AF
100
AcDbEntity
8
exp0
6
ByLayer
62
256
370
-1
100
AcDbLine
10
9.79795897113
20
-2
11
3.46410161514
21
-2
0
LINE
5
B0
100
AcDbEntity
8
exp0
6
ByLayer
62
256
370
-1
100
AcDbLine
10
3.46410161514
20
-2
11
6.63103029314
21
-7.48528137424
0
ARC
5
B1
100
AcDbEntity
8
exp0
6
ByLayer
62
256
370
-1
100
AcDbCircle
10
0
20
0
40
10
100
AcDbArc
50
11.5369590328
51
48.4630409672
0
LINE
5
B2
100
AcDbEntity
8
exp0
6
ByLayer
62
256
370
-1
100
AcDbLine
10
6.63103029314
20
7.48528137424
11
3.46410161514
21
2
0
LINE
5
B3
100
AcDbEntity
8
exp0
6
ByLayer
62
256
370
-1
100
AcDbLine
10
3.46410161514
20
2
11
9.79795897113
21
2
0
ARC
5
B4
100
AcDbEntity
8
exp0
6
ByLayer
62
256
370
-1
100
AcDbCircle
10
0
20
0
40
10
100
AcDbArc
50
71.5369590328
51
108.463040967
0
LINE
5
B5
100
AcDbEntity
8
exp0
6
ByLayer
62
256
370
-1
100
AcDbLine
10
-3.166928678
20
9.48528137424
11
1.2e-15
21
4
0
LINE
5
B6
100
AcDbEntity
8
exp0
6
ByLayer
62
256
370
-1
100
AcDbLine
10
1.2e-15
20
4
11
3.166928678
21
9.48528137424
0
ARC
5
B7
100
AcDbEntity
8
exp0
6
ByLayer
62
256
370
-1
100
AcDbCircle
10
0
20
0
40
10
100
AcDbArc
50
131.536959033
51
168.463040967
0
LINE
5
B8
100
AcDbEntity
8
exp0
6
ByLayer
62
256
370
-1
100
AcDbLine
10
-9.79795897113
20
2
11
-3.46410161514
21
2
0
LINE
5
B9
100
AcDbEntity
8
exp0
6
ByLayer
62
256
370
-1
100
AcDbLine
10
-3.46410161514
20
2
11
-6.63103029314
21
7.48528137424
0
ARC
5
BA
100
AcDbEntity
8
exp0
6
ByLayer
62
256
370
-1
100
AcDbCircle
10
0
20
0
40
10
100
AcDbArc
50
191.536959033
51
228.463040967
0
LINE
5
BB
100
AcDbEntity
8
exp0
6
ByLayer
62
256
370
-1
100
AcDbLine
10
-6.63103029314
20
-7.48528137424
11
-3.46410161514
21
-2
0
LINE
5
BC
100
AcDbEntity
8
exp0
6
ByLayer
62
256
370
-1
100
AcDbLine
10
-3.46410161514
20
-2
11
-9.79795897113
21
-2
0
DIMENSION
5
BD
100
AcDbEntity
8
Phenolic
6
ByLayer
62
256
370
-1
100
AcDbDimension
2
*D3
10
12
20
15
30
0
11
9.26448632173e-16
21
15.625
31
0
70
33
71
8
3
Standard
53
0
210
0
220
0
230
1
100
AcDbAlignedDimension
13
-12
23
1.5e-15
33
0
14
12
24
0
34
0
0
POINT
5
BE
100
AcDbEntity
8
exp0
6
ByLayer
62
256
370
-1
100
AcDbPoint
10
-8.66025403784
20
5
0
POINT
5
BF
100
AcDbEntity
8
exp0
6
ByLayer
62
256
370
-1
100
AcDbPoint
10
-10.3923048454
20
6
0
DIMENSION
5
C0
100
AcDbEntity
8
exp0
6
ByLayer
62
256
370
-1
100
AcDbDimension
2
*D4
10
6.63103029314
20
7.48528137424
30
0
11
10.9549338254
21
6.32483399304
31
0
70
34
71
8
3
Standard
53
0
210
0
220
0
230
1
100
AcDb2LineAngularDimension
13
0
23
0
33
0
14
9.79795897113
24
2
34
0
15
0
25
0
35
0
16
12.0118460925
26
2.52646543992
36
0
0
MTEXT
5
C1
100
AcDbEntity
8
exp0
6
ByLayer
62
256
370
-1
100
AcDbMText
10
-9.22624160047
20
-2.2684189096
30
0
40
0.5
41
3.81944444444
71
1
72
1
1
PORT AREA
7
textstyle0
210
0
220
0
230
1
50
0
73
2
44
0.96
0
MTEXT
5
C2
100
AcDbEntity
8
exp0
6
ByLayer
62
256
370
-1
100
AcDbMText
10
-9
20
-3
30
0
40
0.5
41
4.07098765432
71
1
72
1
1
= 19.431 CM\S2^;
7
textstyle1
210
0
220
0
230
1
50
0
73
2
44
0.96
0
MTEXT
5
C3
100
AcDbEntity
8
exp0
6
ByLayer
62
256
370
-1
100
AcDbMText
10
-12
20
-13
30
0
40
0.5
41
12.6527777778
71
1
72
1
1
6-WEDGE FUEL GRAIN - JACOB ROTH\PTOP VIEW (DIMENSIONS IN CM)\PGRAIN LENGTH 75 CM
7
textstyle2
210
0
220
0
230
1
50
0
73
2
44
0.96
0
DIMENSION
5
C4
100
AcDbEntity
8
exp0
6
ByLayer
62
256
370
-1
100
AcDbDimension
2
*D5
10
-3.98721124904
20
-9.01169101104
30
0
11
-2.9450127874
21
-5.95655032392
31
0
70
33
71
8
3
Standard
53
0
210
0
220
0
230
1
100
AcDbAlignedDimension
13
-8e-16
23
-4
33
0
14
-3.166928678
24
-9.48528137424
34
0
0
ENDSEC
0
SECTION
2
OBJECTS
0
DICTIONARY
5
C
330
0
100
AcDbDictionary
281
1
3
ACAD_GROUP
350
D
0
DICTIONARY
5
D
330
C
100
AcDbDictionary
281
1
0
ENDSEC
0
EOF
