999
dxflib 3.2.3.0
  0
SECTION
  2
HEADER
  9
$ACADVER
  1
AC1015
  9
$HANDSEED
  5
FFFF
  9
$DIMADEC
 70
4.0
  9
$DIMASZ
 40
0.5
  9
$DIMAUNIT
 70
3.0
  9
$DIMAZIN
 70
2.0
  9
$DIMDEC
 70
4.0
  9
$DIMEXE
 40
0.25
  9
$DIMEXO
 40
0.125
  9
$DIMGAP
 40
0.125
  9
$DIMLUNIT
 70
2.0
  9
$DIMTSZ
 40
0.0
  9
$DIMTXT
 40
0.5
  9
$DIMZIN
 70
8.0
  9
$INSUNITS
 70
5
  9
$LTSCALE
 40
1.0
  0
ENDSEC
  0
SECTION
  2
TABLES
  0
TABLE
  2
VPORT
  5
8
100
AcDbSymbolTable
 70
1
  0
VPORT
  5
30
100
AcDbSymbolTableRecord
100
AcDbViewportTableRecord
  2
*Active
 70
0
 10
0.0
 20
0.0
 11
1.0
 21
1.0
 12
286.30555555555549
 22
148.5
 13
0.0
 23
0.0
 14
10.0
 24
10.0
 15
10.0
 25
10.0
 16
0.0
 26
0.0
 36
1.0
 17
0.0
 27
0.0
 37
0.0
 40
297.0
 41
1.92798353909465
 42
50.0
 43
0.0
 44
0.0
 50
0.0
 51
0.0
 71
0
 72
100
 73
1
 74
3
 75
1
 76
1
 77
0
 78
0
281
0
 65
1
110
0.0
120
0.0
130
0.0
111
1.0
121
0.0
131
0.0
112
0.0
122
1.0
132
0.0
 79
0
146
0.0
  0
ENDTAB
  0
TABLE
  2
LTYPE
  5
5
100
AcDbSymbolTable
 70
21
  0
LTYPE
  5
31
100
AcDbSymbolTableRecord
100
AcDbLinetypeTableRecord
  2
CENTER2
 70
0
  3
Center (.5x) ___ _ ___ _ ___ _ ___ _ ___ _ ___
 72
65
 73
4
 40
28.574999999999999
 49
19.050000000000001
 74
0
 49
-3.1749999999999998
 74
0
 49
3.1749999999999998
 74
0
 49
-3.1749999999999998
 74
0
  0
LTYPE
  5
32
100
AcDbSymbolTableRecord
100
AcDbLinetypeTableRecord
  2
DIVIDEX2
 70
0
  3
Divide (2x) ________  .  .  ________  .  .  _
 72
65
 73
6
 40
63.5
 49
25.399999999999999
 74
0
 49
-12.699999999999999
 74
0
 49
0.0
 74
0
 49
-12.699999999999999
 74
0
 49
0.0
 74
0
 49
-12.699999999999999
 74
0
  0
LTYPE
  5
33
100
AcDbSymbolTableRecord
100
AcDbLinetypeTableRecord
  2
DOT2
 70
0
  3
Dot (.5x) .....................................
 72
65
 73
2
 40
3.1749999999999998
 49
0.0
 74
0
 49
-3.1749999999999998
 74
0
  0
LTYPE
  5
34
100
AcDbSymbolTableRecord
100
AcDbLinetypeTableRecord
  2
DASHDOT2
 70
0
  3
Dash dot (.5x) _._._._._._._._._._._._._._._.
 72
65
 73
4
 40
12.699999999999999
 49
6.3499999999999996
 74
0
 49
-3.1749999999999998
 74
0
 49
0.0
 74
0
 49
-3.1749999999999998
 74
0
  0
LTYPE
  5
35
100
AcDbSymbolTableRecord
100
AcDbLinetypeTableRecord
  2
DIVIDE
 70
0
  3
Divide ____ . . ____ . . ____ . . ____ . . ____
 72
65
 73
6
 40
31.75
 49
12.699999999999999
 74
0
 49
-6.3499999999999996
 74
0
 49
0.0
 74
0
 49
-6.3499999999999996
 74
0
 49
0.0
 74
0
 49
-6.3499999999999996
 74
0
  0
LTYPE
  5
36
100
AcDbSymbolTableRecord
100
AcDbLinetypeTableRecord
  2
DASHDOT
 70
0
  3
Dash dot __ . __ . __ . __ . __ . __ . __ . __
 72
65
 73
4
 40
25.399999999999999
 49
12.699999999999999
 74
0
 49
-6.3499999999999996
 74
0
 49
0.0
 74
0
 49
-6.3499999999999996
 74
0
  0
LTYPE
  5
37
100
AcDbSymbolTableRecord
100
AcDbLinetypeTableRecord
  2
BORDER
 70
0
  3
Border __ __ . __ __ . __ __ . __ __ . __ __ .
 72
65
 73
6
 40
44.450000000000003
 49
12.699999999999999
 74
0
 49
-6.3499999999999996
 74
0
 49
12.699999999999999
 74
0
 49
-6.3499999999999996
 74
0
 49
0.0
 74
0
 49
-6.3499999999999996
 74
0
  0
LTYPE
  5
38
100
AcDbSymbolTableRecord
100
AcDbLinetypeTableRecord
  2
DASHDOTX2
 70
0
  3
Dash dot (2x) ____  .  ____  .  ____  .  ___
 72
65
 73
4
 40
50.799999999999997
 49
25.399999999999999
 74
0
 49
-12.699999999999999
 74
0
 49
0.0
 74
0
 49
-12.699999999999999
 74
0
  0
LTYPE
  5
39
100
AcDbSymbolTableRecord
100
AcDbLinetypeTableRecord
  2
CENTERX2
 70
0
  3
Center (2x) ________  __  ________  __  _____
 72
65
 73
4
 40
101.59999999999999
 49
63.5
 74
0
 49
-12.699999999999999
 74
0
 49
12.699999999999999
 74
0
 49
-12.699999999999999
 74
0
  0
LTYPE
  5
3A
100
AcDbSymbolTableRecord
100
AcDbLinetypeTableRecord
  2
BORDER2
 70
0
  3
Border (.5x) __.__.__.__.__.__.__.__.__.__.__.
 72
65
 73
6
 40
22.225000000000001
 49
6.3499999999999996
 74
0
 49
-3.1749999999999998
 74
0
 49
6.3499999999999996
 74
0
 49
-3.1749999999999998
 74
0
 49
0.0
 74
0
 49
-3.1749999999999998
 74
0
  0
LTYPE
  5
3B
100
AcDbSymbolTableRecord
100
AcDbLinetypeTableRecord
  2
BORDERX2
 70
0
  3
Border (2x) ____  ____  .  ____  ____  .  ___
 72
65
 73
6
 40
88.900000000000006
 49
25.399999999999999
 74
0
 49
-12.699999999999999
 74
0
 49
25.399999999999999
 74
0
 49
-12.699999999999999
 74
0
 49
0.0
 74
0
 49
-12.699999999999999
 74
0
  0
LTYPE
  5
16
100
AcDbSymbolTableRecord
100
AcDbLinetypeTableRecord
  2
CONTINUOUS
 70
0
  3
Solid line
 72
65
 73
0
 40
0.0
  0
LTYPE
  5
14
100
AcDbSymbolTableRecord
100
AcDbLinetypeTableRecord
  2
BYBLOCK
 70
0
  3

 72
65
 73
0
 40
0.0
  0
LTYPE
  5
15
100
AcDbSymbolTableRecord
100
AcDbLinetypeTableRecord
  2
BYLAYER
 70
0
  3

 72
65
 73
0
 40
0.0
  0
LTYPE
  5
3C
100
AcDbSymbolTableRecord
100
AcDbLinetypeTableRecord
  2
DASHED2
 70
0
  3
Dashed (.5x) _ _ _ _ _ _ _ _ _ _ _ _ _ _ _ _ _
 72
65
 73
2
 40
9.5250000000000004
 49
6.3499999999999996
 74
0
 49
-3.1749999999999998
 74
0
  0
LTYPE
  5
3D
100
AcDbSymbolTableRecord
100
AcDbLinetypeTableRecord
  2
CENTER
 70
0
  3
Center ____ _ ____ _ ____ _ ____ _ ____ _ ____
 72
65
 73
4
 40
50.799999999999997
 49
31.75
 74
0
 49
-6.3499999999999996
 74
0
 49
6.3499999999999996
 74
0
 49
-6.3499999999999996
 74
0
  0
LTYPE
  5
3E
100
AcDbSymbolTableRecord
100
AcDbLinetypeTableRecord
  2
DIVIDE2
 70
0
  3
Divide (.5x) __..__..__..__..__..__..__..__.._
 72
65
 73
6
 40
15.875
 49
6.3499999999999996
 74
0
 49
-3.1749999999999998
 74
0
 49
0.0
 74
0
 49
-3.1749999999999998
 74
0
 49
0.0
 74
0
 49
-3.1749999999999998
 74
0
  0
LTYPE
  5
3F
100
AcDbSymbolTableRecord
100
AcDbLinetypeTableRecord
  2
DASHED
 70
0
  3
Dashed __ __ __ __ __ __ __ __ __ __ __ __ __ _
 72
65
 73
2
 40
19.050000000000001
 49
12.699999999999999
 74
0
 49
-6.3499999999999996
 74
0
  0
LTYPE
  5
40
100
AcDbSymbolTableRecord
100
AcDbLinetypeTableRecord
  2
DOTX2
 70
0
  3
Dot (2x) .  .  .  .  .  .  .  .  .  .  .  .  .
 72
65
 73
2
 40
12.699999999999999
 49
0.0
 74
0
 49
-12.699999999999999
 74
0
  0
LTYPE
  5
41
100
AcDbSymbolTableRecord
100
AcDbLinetypeTableRecord
  2
DASHEDX2
 70
0
  3
Dashed (2x) ____  ____  ____  ____  ____  ___
 72
65
 73
2
 40
38.100000000000001
 49
25.399999999999999
 74
0
 49
-12.699999999999999
 74
0
  0
LTYPE
  5
42
100
AcDbSymbolTableRecord
100
AcDbLinetypeTableRecord
  2
DOT
 70
0
  3
Dot . . . . . . . . . . . . . . . . . . . . . .
 72
65
 73
2
 40
6.3499999999999996
 49
0.0
 74
0
 49
-6.3499999999999996
 74
0
  0
ENDTAB
  0
TABLE
  2
LAYER
  5
2
100
AcDbSymbolTable
 70
5
  0
LAYER
  5
43
100
AcDbSymbolTableRecord
100
AcDbLayerTableRecord
  2
exp0
 70
1
 62
-7
420
16777215
  6
CONTINUOUS
370
25
390
F
  0
LAYER
  5
44
100
AcDbSymbolTableRecord
100
AcDbLayerTableRecord
  2
exp1
 70
1
 62
-2
420
16776960
  6
CONTINUOUS
370
25
390
F
  0
LAYER
  5
45
100
AcDbSymbolTableRecord
100
AcDbLayerTableRecord
  2
exp2
 70
0
 62
3
420
65280
  6
CONTINUOUS
370
25
390
F
  0
LAYER
  5
46
100
AcDbSymbolTableRecord
100
AcDbLayerTableRecord
  2
Phenolic
 70
0
 62
4
420
65535
  6
CONTINUOUS
370
25
390
F
  0
LAYER
  5
10
100
AcDbSymbolTableRecord
100
AcDbLayerTableRecord
  2
0
 70
1
 62
-7
420
16777215
  6
CONTINUOUS
370
25
390
F
  0
ENDTAB
  0
TABLE
  2
STYLE
  5
3
100
AcDbSymbolTable
 70
3
  0
STYLE
  5
47
100
AcDbSymbolTableRecord
100
AcDbTextStyleTableRecord
  2
textstyle0
 70
0
 40
0.0
 41
1.0
 50
0.0
 71
0
 42
0.5
  3

  4

1001
ACAD
1000
Arial
1071
0
  0
STYLE
  5
48
100
AcDbSymbolTableRecord
100
AcDbTextStyleTableRecord
  2
textstyle1
 70
0
 40
0.0
 41
1.0
 50
0.0
 71
0
 42
0.5
  3

  4

1001
ACAD
1000
Arial
1071
0
  0
STYLE
  5
49
100
AcDbSymbolTableRecord
100
AcDbTextStyleTableRecord
  2
textstyle2
 70
0
 40
0.0
 41
1.0
 50
0.0
 71
0
 42
0.5
  3

  4

1001
ACAD
1000
Arial
1071
0
  0
ENDTAB
  0
TABLE
  2
VIEW
  5
6
100
AcDbSymbolTable
 70
0
  0
ENDTAB
  0
TABLE
  2
UCS
  5
7
100
AcDbSymbolTable
 70
0
  0
ENDTAB
  0
TABLE
  2
APPID
  5
9
100
AcDbSymbolTable
 70
1
  0
APPID
  5
4A
100
AcDbSymbolTableRecord
100
AcDbRegAppTableRecord
  2
QCAD
 70
0
  0
ENDTAB
  0
TABLE
  2
DIMSTYLE
  5
A
100
AcDbSymbolTable
 70
1
100
AcDbDimStyleTable
 71
0
  0
DIMSTYLE
105
27
100
AcDbSymbolTableRecord
100
AcDbDimStyleTableRecord
  2
Standard
 41
0.5
 42
0.125
 43
3.75
 44
0.25
 70
0
 73
0
 74
0
 77
1
 78
8
140
0.5
141
2.5
143
0.03937007874016
147
0.125
171
3
172
1
271
2
272
2
274
3
278
44
283
0
284
8
340
11
  0
ENDTAB
  0
TABLE
  2
BLOCK_RECORD
  5
1
100
AcDbSymbolTable
 70
1
  0
BLOCK_RECORD
  5
1F
100
AcDbSymbolTableRecord
100
AcDbBlockTableRecord
  2
*Model_Space
340
22
  0
BLOCK_RECORD
  5
1B
100
AcDbSymbolTableRecord
100
AcDbBlockTableRecord
  2
*Paper_Space
340
1E
  0
BLOCK_RECORD
  5
23
100
AcDbSymbolTableRecord
100
AcDbBlockTableRecord
  2
*Paper_Space0
340
26
  0
BLOCK_RECORD
  5
4B
100
AcDbSymbolTableRecord
100
AcDbBlockTableRecord
  2
*Model_Space
340
0
  0
ENDTAB
  0
ENDSEC
  0
SECTION
  2
BLOCKS
  0
BLOCK
  5
20
100
AcDbEntity
  8
0
100
AcDbBlockBegin
  2
*Model_Space
 70
0
 10
0.0
 20
0.0
 30
0.0
  3
*Model_Space
  1

  0
ENDSEC
  0
SECTION
  2
ENTITIES
  0
CIRCLE
  5
4C
100
AcDbEntity
100
AcDbCircle
  8
Phenolic
 62
256
370
-1
  6
BYLAYER
 10
0.0
 20
0.0
 30
0.0
 40
11.999999999999998
  0
LINE
  5
4D
100
AcDbEntity
100
AcDbLine
  8
0
 62
256
370
-1
  6
BYLAYER
 10
0.0
 20
0.0
 30
0.0
 11
50.000000000000014
 21
86.602540378443862
 31
0.0
  0
LINE
  5
4E
100
AcDbEntity
100
AcDbLine
  8
0
 62
256
370
-1
  6
BYLAYER
 10
0.0
 20
0.0
 30
0.0
 11
-49.999999999999979
 21
86.602540378443877
 31
0.0
  0
LINE
  5
4F
100
AcDbEntity
100
AcDbLine
  8
0
 62
256
370
-1
  6
BYLAYER
 10
0.0
 20
0.0
 30
0.0
 11
-100.0
 21
0.0000000000000122
 31
0.0
  0
LINE
  5
50
100
AcDbEntity
100
AcDbLine
  8
0
 62
256
370
-1
  6
BYLAYER
 10
0.0
 20
0.0
 30
0.0
 11
-50.000000000000043
 21
-86.602540378443834
 31
0.0
  0
LINE
  5
51
100
AcDbEntity
100
AcDbLine
  8
0
 62
256
370
-1
  6
BYLAYER
 10
0.0
 20
0.0
 30
0.0
 11
50.000000000000014
 21
-86.602540378443862
 31
0.0
  0
LINE
  5
52
100
AcDbEntity
100
AcDbLine
  8
0
 62
256
370
-1
  6
BYLAYER
 10
0.0
 20
0.0
 30
0.0
 11
100.0
 21
-0.0000000000000245
 31
0.0
  0
LINE
  5
53
100
AcDbEntity
100
AcDbLine
  8
0
 62
256
370
-1
  6
BYLAYER
 10
-0.866025403784438
 20
0.5000000000000011
 30
0.0
 11
-50.866025403784484
 21
-86.102540378443834
 31
0.0
  0
LINE
  5
54
100
AcDbEntity
100
AcDbLine
  8
0
 62
256
370
-1
  6
BYLAYER
 10
0.8660254037844379
 20
-0.5000000000000012
 30
0.0
 11
-49.133974596215602
 21
-87.102540378443834
 31
0.0
  0
LINE
  5
55
100
AcDbEntity
100
AcDbLine
  8
0
 62
256
370
-1
  6
BYLAYER
 10
-0.8660254037844386
 20
-0.5000000000000001
 30
0.0
 11
49.133974596215573
 21
-87.102540378443862
 31
0.0
  0
LINE
  5
56
100
AcDbEntity
100
AcDbLine
  8
0
 62
256
370
-1
  6
BYLAYER
 10
0.8660254037844386
 20
0.5
 30
0.0
 11
50.866025403784455
 21
-86.102540378443862
 31
0.0
  0
LINE
  5
57
100
AcDbEntity
100
AcDbLine
  8
0
 62
256
370
-1
  6
BYLAYER
 10
-0.0000000000000002
 20
-1.0
 30
0.0
 11
-100.0
 21
-0.9999999999999878
 31
0.0
  0
LINE
  5
58
100
AcDbEntity
100
AcDbLine
  8
0
 62
256
370
-1
  6
BYLAYER
 10
0.0000000000000001
 20
1.0
 30
0.0
 11
-100.0
 21
1.0000000000000122
 31
0.0
  0
LINE
  5
59
100
AcDbEntity
100
AcDbLine
  8
0
 62
256
370
-1
  6
BYLAYER
 10
0.8660254037844386
 20
-0.5
 30
0.0
 11
50.866025403784455
 21
86.102540378443862
 31
0.0
  0
LINE
  5
5A
100
AcDbEntity
100
AcDbLine
  8
0
 62
256
370
-1
  6
BYLAYER
 10
-0.8660254037844385
 20
0.5000000000000003
 30
0.0
 11
49.133974596215573
 21
87.102540378443862
 31
0.0
  0
LINE
  5
5B
100
AcDbEntity
100
AcDbLine
  8
0
 62
256
370
-1
  6
BYLAYER
 10
-0.8660254037844388
 20
-0.4999999999999997
 30
0.0
 11
-50.86602540378442
 21
86.102540378443877
 31
0.0
  0
LINE
  5
5C
100
AcDbEntity
100
AcDbLine
  8
0
 62
256
370
-1
  6
BYLAYER
 10
0.8660254037844387
 20
0.4999999999999998
 30
0.0
 11
-49.133974596215538
 21
87.102540378443877
 31
0.0
  0
LINE
  5
5D
100
AcDbEntity
100
AcDbLine
  8
0
 62
256
370
-1
  6
BYLAYER
 10
-0.0000000000000002
 20
-1.0
 30
0.0
 11
100.0
 21
-1.0000000000000244
 31
0.0
  0
LINE
  5
5E
100
AcDbEntity
100
AcDbLine
  8
0
 62
256
370
-1
  6
BYLAYER
 10
0.0000000000000003
 20
1.0
 30
0.0
 11
100.0
 21
0.9999999999999755
 31
0.0
  0
CIRCLE
  5
5F
100
AcDbEntity
100
AcDbCircle
  8
0
 62
256
370
-1
  6
BYLAYER
 10
0.0
 20
0.0
 30
0.0
 40
10.999999999999998
  0
CIRCLE
  5
60
100
AcDbEntity
100
AcDbCircle
  8
0
 62
256
370
-1
  6
BYLAYER
 10
0.0
 20
0.0
 30
0.0
 40
9.9999999999999982
  0
LINE
  5
61
100
AcDbEntity
100
AcDbLine
  8
0
 62
256
370
-1
  6
BYLAYER
 10
-1.7320508075688772
 20
-1.0000000000000002
 30
0.0
 11
48.267949192431132
 21
-87.602540378443862
 31
0.0
  0
LINE
  5
62
100
AcDbEntity
100
AcDbLine
  8
0
 62
256
370
-1
  6
BYLAYER
 10
1.7320508075688772
 20
1.0
 30
0.0
 11
51.732050807568896
 21
-85.602540378443862
 31
0.0
  0
LINE
  5
63
100
AcDbEntity
100
AcDbLine
  8
0
 62
256
370
-1
  6
BYLAYER
 10
1.7320508075688759
 20
-1.0000000000000024
 30
0.0
 11
-48.267949192431161
 21
-87.602540378443834
 31
0.0
  0
LINE
  5
64
100
AcDbEntity
100
AcDbLine
  8
0
 62
256
370
-1
  6
BYLAYER
 10
-1.7320508075688761
 20
1.0000000000000022
 30
0.0
 11
-51.732050807568925
 21
-85.602540378443834
 31
0.0
  0
LINE
  5
65
100
AcDbEntity
100
AcDbLine
  8
0
 62
256
370
-1
  6
BYLAYER
 10
-0.0000000000000004
 20
-2.0
 30
0.0
 11
-100.0
 21
-1.9999999999999878
 31
0.0
  0
LINE
  5
66
100
AcDbEntity
100
AcDbLine
  8
0
 62
256
370
-1
  6
BYLAYER
 10
0.0000000000000002
 20
2.0
 30
0.0
 11
-100.0
 21
2.0000000000000124
 31
0.0
  0
LINE
  5
67
100
AcDbEntity
100
AcDbLine
  8
0
 62
256
370
-1
  6
BYLAYER
 10
-1.7320508075688776
 20
-0.9999999999999994
 30
0.0
 11
-51.732050807568861
 21
85.602540378443877
 31
0.0
  0
LINE
  5
68
100
AcDbEntity
100
AcDbLine
  8
0
 62
256
370
-1
  6
BYLAYER
 10
1.7320508075688774
 20
0.9999999999999996
 30
0.0
 11
-48.267949192431097
 21
87.602540378443877
 31
0.0
  0
LINE
  5
69
100
AcDbEntity
100
AcDbLine
  8
0
 62
256
370
-1
  6
BYLAYER
 10
-1.732050807568877
 20
1.0000000000000007
 30
0.0
 11
48.267949192431132
 21
87.602540378443862
 31
0.0
  0
LINE
  5
6A
100
AcDbEntity
100
AcDbLine
  8
0
 62
256
370
-1
  6
BYLAYER
 10
1.7320508075688772
 20
-1.0
 30
0.0
 11
51.732050807568896
 21
85.602540378443862
 31
0.0
  0
LINE
  5
6B
100
AcDbEntity
100
AcDbLine
  8
0
 62
256
370
-1
  6
BYLAYER
 10
0.0000000000000006
 20
2.0
 30
0.0
 11
100.0
 21
1.9999999999999756
 31
0.0
  0
LINE
  5
6C
100
AcDbEntity
100
AcDbLine
  8
0
 62
256
370
-1
  6
BYLAYER
 10
-0.0000000000000004
 20
-2.0
 30
0.0
 11
100.0
 21
-2.0000000000000244
 31
0.0
  0
POINT
  5
6D
100
AcDbEntity
100
AcDbPoint
  8
exp0
 62
256
370
-1
  6
BYLAYER
 10
-3.1669286779974826
 20
-9.4852813742385678
 30
0.0
  0
POINT
  5
6E
100
AcDbEntity
100
AcDbPoint
  8
exp0
 62
256
370
-1
  6
BYLAYER
 10
3.1669286779974786
 20
-9.4852813742385678
 30
0.0
  0
ARC
  5
6F
100
AcDbEntity
  8
exp0
 62
256
370
-1
  6
BYLAYER
100
AcDbCircle
 10
0.0
 20
0.0
 30
0.0
 40
9.9999999999999982
100
AcDbArc
 50
251.53695903281547
 51
288.46304096718455
  0
LINE
  5
70
100
AcDbEntity
100
AcDbLine
  8
exp0
 62
256
370
-1
  6
BYLAYER
 10
3.1669286779974786
 20
-9.4852813742385678
 30
0.0
 11
-0.0000000000000008
 21
-3.9999999999999982
 31
0.0
  0
LINE
  5
71
100
AcDbEntity
100
AcDbLine
  8
exp0
 62
256
370
-1
  6
BYLAYER
 10
-0.0000000000000008
 20
-3.9999999999999982
 30
0.0
 11
-3.1669286779974821
 21
-9.4852813742385678
 31
0.0
  0
ARC
  5
72
100
AcDbEntity
  8
exp1
 62
256
370
-1
  6
BYLAYER
100
AcDbCircle
 10
0.0
 20
0.0
 30
0.0
 40
10.999999999999998
100
AcDbArc
 50
251.53695903281547
 51
288.46304096718455
  0
LINE
  5
73
100
AcDbEntity
100
AcDbLine
  8
exp1
 62
256
370
-1
  6
BYLAYER
 10
-0.8660254037844394
 20
-3.4999999999999978
 30
0.0
 11
-4.0329540817819209
 21
-8.9852813742385678
 31
0.0
  0
LINE
  5
74
100
AcDbEntity
100
AcDbLine
  8
exp1
 62
256
370
-1
  6
BYLAYER
 10
4.0329540817819174
 20
-8.9852813742385678
 30
0.0
 11
0.8660254037844376
 21
-3.4999999999999982
 31
0.0
  0
LINE
  5
75
100
AcDbEntity
100
AcDbLine
  8
exp2
 62
256
370
-1
  6
BYLAYER
 10
4.8989794855663558
 20
-8.4852813742385678
 30
0.0
 11
1.7320508075688761
 21
-2.9999999999999982
 31
0.0
  0
ARC
  5
76
100
AcDbEntity
  8
exp2
 62
256
370
-1
  6
BYLAYER
100
AcDbCircle
 10
0.0
 20
0.0
 30
0.0
 40
11.999999999999998
100
AcDbArc
 50
251.53695903281547
 51
288.46304096718455
  0
LINE
  5
77
100
AcDbEntity
100
AcDbLine
  8
exp2
 62
256
370
-1
  6
BYLAYER
 10
-1.7320508075688774
 20
-2.9999999999999964
 30
0.0
 11
-4.8989794855663593
 21
-8.485281374238566
 31
0.0
  0
ARC
  5
78
100
AcDbEntity
  8
exp1
 62
256
370
-1
  6
BYLAYER
100
AcDbCircle
 10
3.1669286779974799
 20
-9.4852813742385695
 30
0.0
 40
0.9999999999999975
100
AcDbArc
 50
288.46304096718444
 51
30.000000000000117
  0
ARC
  5
79
100
AcDbEntity
  8
exp1
 62
256
370
-1
  6
BYLAYER
100
AcDbCircle
 10
-3.1669286779974821
 20
-9.4852813742385678
 30
0.0
 40
0.9999999999999999
100
AcDbArc
 50
150.0
 51
251.53695903281547
  0
ARC
  5
7A
100
AcDbEntity
  8
exp1
 62
256
370
-1
  6
BYLAYER
100
AcDbCircle
 10
-0.0000000000000008
 20
-3.9999999999999973
 30
0.0
 40
0.9999999999999993
100
AcDbArc
 50
29.999999999999968
 51
150.00000000000003
  0
ARC
  5
7B
100
AcDbEntity
  8
exp2
 62
256
370
-1
  6
BYLAYER
100
AcDbCircle
 10
-3.1669286779974821
 20
-9.4852813742385678
 30
0.0
 40
2.0
100
AcDbArc
 50
150.0
 51
251.53695903281547
  0
ARC
  5
7C
100
AcDbEntity
  8
exp2
 62
256
370
-1
  6
BYLAYER
100
AcDbCircle
 10
3.1669286779974799
 20
-9.4852813742385695
 30
0.0
 40
1.9999999999999973
100
AcDbArc
 50
288.46304096718444
 51
30.000000000000117
  0
ARC
  5
7D
100
AcDbEntity
  8
exp2
 62
256
370
-1
  6
BYLAYER
100
AcDbCircle
 10
-0.0000000000000008
 20
-3.9999999999999973
 30
0.0
 40
1.9999999999999993
100
AcDbArc
 50
29.999999999999968
 51
150.00000000000003
  0
DIMENSION
  5
7E
100
AcDbEntity
  8
exp1
 62
256
370
-1
  6
BYLAYER
100
AcDbDimension
 10
4.0329540817819156
 20
-8.9852813742385695
 30
0.0
 11
10.473971270344014
 21
-12.256367509258761
 31
0.0
 70
2
 71
8
 72
2
 41
1.0
 42
0.0
  1

  3
Standard
100
AcDb2LineAngularDimension
 13
3.1669286779974799
 23
-9.4852813742385695
 33
0.0
 14
3.4836215457972259
 24
-10.433809511662425
 34
0.0
 15
3.1669286779974799
 25
-9.4852813742385695
 35
0.0
 16
10.0
 26
-14.0
 36
0.0
  0
DIMENSION
  5
7F
100
AcDbEntity
  8
exp1
 62
256
370
-1
  6
BYLAYER
100
AcDbDimension
 10
-0.8660254037844392
 20
-3.4999999999999982
 30
0.0
 11
-0.0000000000000001
 21
2.8095593992999266
 31
0.0
 70
2
 71
8
 72
2
 41
1.0
 42
0.0
  1

  3
Standard
100
AcDb2LineAngularDimension
 13
-0.0000000000000008
 23
-3.9999999999999973
 33
0.0
 14
0.8660254037844376
 24
-3.4999999999999982
 34
0.0
 15
-0.0000000000000008
 25
-3.9999999999999973
 35
0.0
 16
0.0093576179769137
 26
2.434552595022037
 36
0.0
  0
ARC
  5
80
100
AcDbEntity
  8
exp0
 62
256
370
-1
  6
BYLAYER
100
AcDbCircle
 10
0.0
 20
0.0
 30
0.0
 40
9.9999999999999982
100
AcDbArc
 50
311.53695903281545
 51
348.4630409671845
  0
LINE
  5
81
100
AcDbEntity
100
AcDbLine
  8
exp0
 62
256
370
-1
  6
BYLAYER
 10
9.797958971132708
 20
-2.0000000000000027
 30
0.0
 11
3.4641016151377522
 21
-2.0000000000000009
 31
0.0
  0
LINE
  5
82
100
AcDbEntity
100
AcDbLine
  8
exp0
 62
256
370
-1
  6
BYLAYER
 10
3.4641016151377522
 20
-2.0000000000000009
 30
0.0
 11
6.6310302931352272
 21
-7.485281374238574
 31
0.0
  0
ARC
  5
83
100
AcDbEntity
  8
exp0
 62
256
370
-1
  6
BYLAYER
100
AcDbCircle
 10
0.0
 20
0.0
 30
0.0
 40
9.9999999999999982
100
AcDbArc
 50
11.536959032815442
 51
48.46304096718449
  0
LINE
  5
84
100
AcDbEntity
100
AcDbLine
  8
exp0
 62
256
370
-1
  6
BYLAYER
 10
6.6310302931352361
 20
7.4852813742385633
 30
0.0
 11
3.4641016151377548
 21
1.9999999999999962
 31
0.0
  0
LINE
  5
85
100
AcDbEntity
100
AcDbLine
  8
exp0
 62
256
370
-1
  6
BYLAYER
 10
3.4641016151377548
 20
1.9999999999999962
 30
0.0
 11
9.7979589711327133
 21
1.9999999999999896
 31
0.0
  0
ARC
  5
86
100
AcDbEntity
  8
exp0
 62
256
370
-1
  6
BYLAYER
100
AcDbCircle
 10
0.0
 20
0.0
 30
0.0
 40
9.9999999999999982
100
AcDbArc
 50
71.536959032815417
 51
108.46304096718448
  0
LINE
  5
87
100
AcDbEntity
100
AcDbLine
  8
exp0
 62
256
370
-1
  6
BYLAYER
 10
-3.1669286779974679
 20
9.4852813742385695
 30
0.0
 11
0.0000000000000012
 21
3.9999999999999982
 31
0.0
  0
LINE
  5
88
100
AcDbEntity
100
AcDbLine
  8
exp0
 62
256
370
-1
  6
BYLAYER
 10
0.0000000000000012
 20
3.9999999999999982
 30
0.0
 11
3.1669286779974914
 21
9.4852813742385642
 31
0.0
  0
ARC
  5
89
100
AcDbEntity
  8
exp0
 62
256
370
-1
  6
BYLAYER
100
AcDbCircle
 10
0.0
 20
0.0
 30
0.0
 40
9.9999999999999982
100
AcDbArc
 50
131.53695903281545
 51
168.4630409671845
  0
LINE
  5
8A
100
AcDbEntity
100
AcDbLine
  8
exp0
 62
256
370
-1
  6
BYLAYER
 10
-9.797958971132708
 20
2.000000000000004
 30
0.0
 11
-3.4641016151377539
 21
1.9999999999999982
 31
0.0
  0
LINE
  5
8B
100
AcDbEntity
100
AcDbLine
  8
exp0
 62
256
370
-1
  6
BYLAYER
 10
-3.4641016151377539
 20
1.9999999999999982
 30
0.0
 11
-6.6310302931352263
 21
7.4852813742385749
 31
0.0
  0
ARC
  5
8C
100
AcDbEntity
  8
exp0
 62
256
370
-1
  6
BYLAYER
100
AcDbCircle
 10
0.0
 20
0.0
 30
0.0
 40
9.9999999999999982
100
AcDbArc
 50
191.53695903281539
 51
228.46304096718455
  0
LINE
  5
8D
100
AcDbEntity
100
AcDbLine
  8
exp0
 62
256
370
-1
  6
BYLAYER
 10
-6.6310302931352307
 20
-7.4852813742385678
 30
0.0
 11
-3.4641016151377553
 21
-1.9999999999999958
 31
0.0
  0
LINE
  5
8E
100
AcDbEntity
100
AcDbLine
  8
exp0
 62
256
370
-1
  6
BYLAYER
 10
-3.4641016151377553
 20
-1.9999999999999958
 30
0.0
 11
-9.7979589711327151
 21
-1.9999999999999796
 31
0.0
  0
DIMENSION
  5
8F
100
AcDbEntity
  8
Phenolic
 62
256
370
-1
  6
BYLAYER
100
AcDbDimension
 10
-11.999999999999995
 20
15.000000000000002
 30
0.0
 11
0.0000000000000046
 21
15.375
 31
0.0
 70
1
 71
8
 72
2
 41
1.0
 42
0.0
  1

  3
Standard
100
AcDbAlignedDimension
 13
-12.0
 23
0.0000000000000015
 33
0.0
 14
11.999999999999998
 24
0.0
 34
0.0
1001
ACAD
1000
DSTYLE
1002
{
1070
144
1040
1
1002
}
  0
POINT
  5
90
100
AcDbEntity
100
AcDbPoint
  8
exp0
 62
256
370
-1
  6
BYLAYER
 10
-8.660254037844382
 20
5.0000000000000044
 30
0.0
  0
POINT
  5
91
100
AcDbEntity
100
AcDbPoint
  8
exp0
 62
256
370
-1
  6
BYLAYER
 10
-10.392304845413257
 20
6.0000000000000053
 30
0.0
  0
DIMENSION
  5
92
100
AcDbEntity
  8
exp0
 62
256
370
-1
  6
BYLAYER
100
AcDbDimension
 10
6.6310302931352361
 20
7.485281374238566
 30
0.0
 11
10.95493382538821
 21
6.3248339930424171
 31
0.0
 70
2
 71
8
 72
2
 41
1.0
 42
0.0
  1

  3
Standard
100
AcDb2LineAngularDimension
 13
0.0
 23
0.0
 33
0.0
 14
9.7979589711327133
 24
1.9999999999999918
 34
0.0
 15
0.0
 25
0.0
 35
0.0
 16
12.011846092482442
 26
2.5264654399239852
 36
0.0
  0
MTEXT
  5
93
100
AcDbEntity
100
AcDbMText
  8
exp0
 62
256
370
-1
  6
BYLAYER
 10
-9.2262416004723633
 20
-2.2684189095969676
 30
0.0
 40
0.5
 41
0.0
 71
1
 72
1
  1
PORT AREA
  7
textstyle0
 50
0.0
 73
2
 44
1.0
  0
MTEXT
  5
94
100
AcDbEntity
100
AcDbMText
  8
exp0
 62
256
370
-1
  6
BYLAYER
 10
-9.0
 20
-3.0
 30
0.0
 40
0.5
 41
0.0
 71
1
 72
1
  1
= 19.431 CM\S2^;
  7
textstyle1
 50
0.0
 73
2
 44
1.0
  0
MTEXT
  5
95
100
AcDbEntity
100
AcDbMText
  8
exp0
 62
256
370
-1
  6
BYLAYER
 10
-12.0
 20
-13.0
 30
0.0
 40
0.5
 41
0.0
 71
1
 72
1
  1
6-WEDGE FUEL GRAIN - JACOB ROTH\PTOP VIEW (DIMENSIONS IN CM)\PGRAIN LENGTH 75 CM
  7
textstyle2
 50
0.0
 73
2
 44
1.0
  0
DIMENSION
  5
96
100
AcDbEntity
  8
exp0
 62
256
370
-1
  6
BYLAYER
100
AcDbDimension
 10
-0.8202825710396271
 20
-3.5264096367987103
 30
0.0
 11
-2.7285064364575318
 21
-6.0815503239179955
 31
0.0
 70
1
 71
8
 72
2
 41
1.0
 42
0.0
  1

  3
Standard
100
AcDbAlignedDimension
 13
-0.0000000000000008
 23
-3.9999999999999973
 33
0.0
 14
-3.1669286779974821
 24
-9.4852813742385678
 34
0.0
1001
ACAD
1000
DSTYLE
1002
{
1070
144
1040
1
1002
}
  0
ENDSEC
  0
SECTION
  2
OBJECTS
  0
DICTIONARY
  5
C
100
AcDbDictionary
280
0
281
1
  3
ACAD_GROUP
350
D
  3
ACAD_LAYOUT
350
1A
  3
ACAD_MLINESTYLE
350
17
  3
ACAD_PLOTSETTINGS
350
19
  3
ACAD_PLOTSTYLENAME
350
E
  3
AcDbVariableDictionary
350
97
  3
QCAD_OBJECTS
350
98
  0
DICTIONARY
  5
D
100
AcDbDictionary
280
0
281
1
  0
ACDBDICTIONARYWDFLT
  5
E
100
AcDbDictionary
281
1
  3
Normal
350
F
100
AcDbDictionaryWithDefault
340
F
  0
ACDBPLACEHOLDER
  5
F
  0
DICTIONARY
  5
17
100
AcDbDictionary
280
0
281
1
  3
Standard
350
18
  0
MLINESTYLE
  5
18
100
AcDbMlineStyle
  2
STANDARD
 70
0
  3

 62
256
 51
90.0
 52
90.0
 71
2
 49
0.5
 62
256
  6
BYLAYER
 49
-0.5
 62
256
  6
BYLAYER
  0
DICTIONARY
  5
19
100
AcDbDictionary
280
0
281
1
  0
DICTIONARY
  5
1A
100
AcDbDictionary
281
1
  3
Layout1
350
1E
  3
Layout2
350
26
  3
Model
350
22
  0
LAYOUT
  5
1E
100
AcDbPlotSettings
  1

  2
C:\Program Files\AutoCAD 2002\plotters\DWF ePlot (optimized for plotting).pc3
  4

  6

 40
0.0
 41
0.0
 42
0.0
 43
0.0
 44
0.0
 45
0.0
 46
0.0
 47
0.0
 48
0.0
 49
0.0
140
0.0
141
0.0
142
1.0
143
1.0
 70
688
 72
0
 73
0
 74
5
  7

 75
16
147
1.0
148
0.0
149
0.0
100
AcDbLayout
  1
Layout1
 70
1
 71
1
 10
0.0
 20
0.0
 11
420.0
 21
297.0
 12
0.0
 22
0.0
 32
0.0
 14
100000000000000000000.0
 24
100000000000000000000.0
 34
100000000000000000000.0
 15
-100000000000000000000.0
 25
-100000000000000000000.0
 35
-100000000000000000000.0
146
0.0
 13
0.0
 23
0.0
 33
0.0
 16
1.0
 26
0.0
 36
0.0
 17
0.0
 27
1.0
 37
0.0
 76
0
330
1B
  0
LAYOUT
  5
22
100
AcDbPlotSettings
  1

  2
C:\Program Files\AutoCAD 2002\plotters\DWF ePlot (optimized for plotting).pc3
  4

  6

 40
0.0
 41
0.0
 42
0.0
 43
0.0
 44
0.0
 45
0.0
 46
0.0
 47
0.0
 48
0.0
 49
0.0
140
0.0
141
0.0
142
1.0
143
1.0
 70
1712
 72
0
 73
0
 74
0
  7

 75
0
147
1.0
148
0.0
149
0.0
100
AcDbLayout
  1
Model
 70
1
 71
0
 10
0.0
 20
0.0
 11
12.0
 21
9.0
 12
0.0
 22
0.0
 32
0.0
 14
0.0
 24
0.0
 34
0.0
 15
0.0
 25
0.0
 35
0.0
146
0.0
 13
0.0
 23
0.0
 33
0.0
 16
1.0
 26
0.0
 36
0.0
 17
0.0
 27
1.0
 37
0.0
 76
0
330
1F
  0
LAYOUT
  5
26
100
AcDbPlotSettings
  1

  2
C:\Program Files\AutoCAD 2002\plotters\DWF ePlot (optimized for plotting).pc3
  4

  6

 40
0.0
 41
0.0
 42
0.0
 43
0.0
 44
0.0
 45
0.0
 46
0.0
 47
0.0
 48
0.0
 49
0.0
140
0.0
141
0.0
142
1.0
143
1.0
 70
688
 72
0
 73
0
 74
5
  7

 75
16
147
1.0
148
0.0
149
0.0
100
AcDbLayout
  1
Layout2
 70
1
 71
2
 10
0.0
 20
0.0
 11
12.0
 21
9.0
 12
0.0
 22
0.0
 32
0.0
 14
0.0
 24
0.0
 34
0.0
 15
0.0
 25
0.0
 35
0.0
146
0.0
 13
0.0
 23
0.0
 33
0.0
 16
1.0
 26
0.0
 36
0.0
 17
0.0
 27
1.0
 37
0.0
 76
0
330
23
  0
DICTIONARY
  5
97
100
AcDbDictionary
281
1
  3
DIMASSOC
350
9A
  3
HIDETEXT
350
99
  0
DICTIONARYVAR
  5
99
100
DictionaryVariables
280
0
  1
2
  0
DICTIONARYVAR
  5
9A
100
DictionaryVariables
280
0
  1
1
  0
DICTIONARY
  5
98
100
AcDbDictionary
281
1
  3
DimensionSettings/AngularFormat
350
9B
  3
DimensionSettings/AngularPrecision
350
9C
  3
DimensionSettings/KeepProportions
350
9D
  3
DimensionSettings/LinearFormat
350
9E
  3
DimensionSettings/LinearPrecision
350
9F
  3
Grid/DisplayGrid00
350
A0
  3
Grid/DisplayGrid01
350
A1
  3
Grid/DisplayGrid02
350
A2
  3
Grid/DisplayGrid03
350
A3
  3
Grid/GridSpacingX00
350
A4
  3
Grid/GridSpacingX01
350
A5
  3
Grid/GridSpacingX02
350
A6
  3
Grid/GridSpacingX03
350
A7
  3
Grid/GridSpacingY00
350
A8
  3
Grid/GridSpacingY01
350
A9
  3
Grid/GridSpacingY02
350
AA
  3
Grid/GridSpacingY03
350
AB
  3
Grid/IsometricGrid00
350
AC
  3
Grid/IsometricGrid01
350
AD
  3
Grid/IsometricGrid02
350
AE
  3
Grid/IsometricGrid03
350
AF
  3
Grid/IsometricProjection00
350
B0
  3
Grid/IsometricProjection01
350
B1
  3
Grid/IsometricProjection02
350
B2
  3
Grid/IsometricProjection03
350
B3
  3
Grid/MetaGridSpacingX00
350
B4
  3
Grid/MetaGridSpacingX01
350
B5
  3
Grid/MetaGridSpacingX02
350
B6
  3
Grid/MetaGridSpacingX03
350
B7
  3
Grid/MetaGridSpacingY00
350
B8
  3
Grid/MetaGridSpacingY01
350
B9
  3
Grid/MetaGridSpacingY02
350
BA
  3
Grid/MetaGridSpacingY03
350
BB
  3
MultiPageSettings/Columns
350
BC
  3
MultiPageSettings/GlueMarginsBottom
350
BD
  3
MultiPageSettings/GlueMarginsLeft
350
BE
  3
MultiPageSettings/GlueMarginsRight
350
BF
  3
MultiPageSettings/GlueMarginsTop
350
C0
  3
MultiPageSettings/PrintCropMarks
350
C1
  3
MultiPageSettings/Rows
350
C2
  3
PageSettings/OffsetX
350
C3
  3
PageSettings/OffsetY
350
C4
  3
PageSettings/PageOrientation
350
C5
  3
PageSettings/PaperHeight
350
C6
  3
PageSettings/PaperWidth
350
C7
  3
PageSettings/Scale
350
C8
  3
PageSettings/ShowPaperBorders
350
C9
  3
UnitSettings/PaperUnit
350
CA
  0
XRECORD
  5
9B
330
98
100
AcDbXrecord
280
1
 40
3.0
  0
XRECORD
  5
9C
330
98
100
AcDbXrecord
280
1
 40
4.0
  0
XRECORD
  5
9D
330
98
100
AcDbXrecord
280
1
290
1
  0
XRECORD
  5
9E
330
98
100
AcDbXrecord
280
1
 40
2.0
  0
XRECORD
  5
9F
330
98
100
AcDbXrecord
280
1
 40
4.0
  0
XRECORD
  5
A0
330
98
100
AcDbXrecord
280
1
290
1
  0
XRECORD
  5
A1
330
98
100
AcDbXrecord
280
1
290
1
  0
XRECORD
  5
A2
330
98
100
AcDbXrecord
280
1
290
1
  0
XRECORD
  5
A3
330
98
100
AcDbXrecord
280
1
290
1
  0
XRECORD
  5
A4
330
98
100
AcDbXrecord
280
1
1000
auto
  0
XRECORD
  5
A5
330
98
100
AcDbXrecord
280
1
1000
auto
  0
XRECORD
  5
A6
330
98
100
AcDbXrecord
280
1
1000
auto
  0
XRECORD
  5
A7
330
98
100
AcDbXrecord
280
1
1000
auto
  0
XRECORD
  5
A8
330
98
100
AcDbXrecord
280
1
1000
auto
  0
XRECORD
  5
A9
330
98
100
AcDbXrecord
280
1
1000
auto
  0
XRECORD
  5
AA
330
98
100
AcDbXrecord
280
1
1000
auto
  0
XRECORD
  5
AB
330
98
100
AcDbXrecord
280
1
1000
auto
  0
XRECORD
  5
AC
330
98
100
AcDbXrecord
280
1
290
0
  0
XRECORD
  5
AD
330
98
100
AcDbXrecord
280
1
290
0
  0
XRECORD
  5
AE
330
98
100
AcDbXrecord
280
1
290
0
  0
XRECORD
  5
AF
330
98
100
AcDbXrecord
280
1
290
0
  0
XRECORD
  5
B0
330
98
100
AcDbXrecord
280
1
 90
0
  0
XRECORD
  5
B1
330
98
100
AcDbXrecord
280
1
 90
0
  0
XRECORD
  5
B2
330
98
100
AcDbXrecord
280
1
 90
0
  0
XRECORD
  5
B3
330
98
100
AcDbXrecord
280
1
 90
0
  0
XRECORD
  5
B4
330
98
100
AcDbXrecord
280
1
1000
auto
  0
XRECORD
  5
B5
330
98
100
AcDbXrecord
280
1
1000
auto
  0
XRECORD
  5
B6
330
98
100
AcDbXrecord
280
1
1000
auto
  0
XRECORD
  5
B7
330
98
100
AcDbXrecord
280
1
1000
auto
  0
XRECORD
  5
B8
330
98
100
AcDbXrecord
280
1
1000
auto
  0
XRECORD
  5
B9
330
98
100
AcDbXrecord
280
1
1000
auto
  0
XRECORD
  5
BA
330
98
100
AcDbXrecord
280
1
1000
auto
  0
XRECORD
  5
BB
330
98
100
AcDbXrecord
280
1
1000
auto
  0
XRECORD
  5
BC
330
98
100
AcDbXrecord
280
1
 90
1
  0
XRECORD
  5
BD
330
98
100
AcDbXrecord
280
1
 40
0.0
  0
XRECORD
  5
BE
330
98
100
AcDbXrecord
280
1
 40
0.0
  0
XRECORD
  5
BF
330
98
100
AcDbXrecord
280
1
 40
0.0
  0
XRECORD
  5
C0
330
98
100
AcDbXrecord
280
1
 40
0.0
  0
XRECORD
  5
C1
330
98
100
AcDbXrecord
280
1
290
0
  0
XRECORD
  5
C2
330
98
100
AcDbXrecord
280
1
 90
1
  0
XRECORD
  5
C3
330
98
100
AcDbXrecord
280
1
 40
-14.961197454545434
  0
XRECORD
  5
C4
330
98
100
AcDbXrecord
280
1
 40
-26.144747590909063
  0
XRECORD
  5
C5
330
98
100
AcDbXrecord
280
1
1000
Portrait
  0
XRECORD
  5
C6
330
98
100
AcDbXrecord
280
1
 40
297.0
  0
XRECORD
  5
C7
330
98
100
AcDbXrecord
280
1
 40
210.0
  0
XRECORD
  5
C8
330
98
100
AcDbXrecord
280
1
1000
1:1.5
  0
XRECORD
  5
C9
330
98
100
AcDbXrecord
280
1
290
1
  0
XRECORD
  5
CA
330
98
100
AcDbXrecord
280
1
 90
4
  0
ENDSEC
  0
EOF
