999
dxflib 3.2.3.0
  0
SECTION
  2
HEADER
  9
$ACADVER
  1
AC1015
  9
$HANDSEED
  5
FFFF
  9
$DIMADEC
 70
4
  9
$DIMASZ
 40
0.5
  9
$DIMAUNIT
 70
3
  9
$DIMAZIN
 70
2
  9
$DIMDEC
 70
4
  9
$DIMEXE
 40
0.25
  9
$DIMEXO
 40
0.125
  9
$DIMGAP
 40
0.125
  9
$DIMLUNIT
 70
2
  9
$DIMTSZ
 40
0.0
  9
$DIMTXT
 40
0.5
  9
$DIMZIN
 70
8
  9
$INSUNITS
 70
5
  9
$LTSCALE
 40
1.0
  0
ENDSEC
  0
SECTION
  2
TABLES
  0
TABLE
  2
VPORT
  5
8
100
AcDbSymbolTable
 70
1
  0
VPORT
  5
30
100
AcDbSymbolTableRecord
100
AcDbViewportTableRecord
  2
*Active
 70
0
 10
0.0
 20
0.0
 11
1.0
 21
1.0
 12
286.30555555555549
 22
148.5
 13
0.0
 23
0.0
 14
10.0
 24
10.0
 15
10.0
 25
10.0
 16
0.0
 26
0.0
 36
1.0
 17
0.0
 27
0.0
 37
0.0
 40
297.0
 41
1.92798353909465
 42
50.0
 43
0.0
 44
0.0
 50
0.0
 51
0.0
 71
0
 72
100
 73
1
 74
3
 75
1
 76
1
 77
0
 78
0
281
0
 65
1
110
0.0
120
0.0
130
0.0
111
1.0
121
0.0
131
0.0
112
0.0
122
1.0
132
0.0
 79
0
146
0.0
  0
ENDTAB
  0
TABLE
  2
LTYPE
  5
5
100
AcDbSymbolTable
 70
21
  0
LTYPE
  5
31
100
AcDbSymbolTableRecord
100
AcDbLinetypeTableRecord
  2
CENTER2
 70
0
  3
Center (.5x) ___ _ ___ _ ___ _ ___ _ ___ _ ___
 72
65
 73
4
 40
28.574999999999999
 49
19.050000000000001
 74
0
 49
-3.1749999999999998
 74
0
 49
3.1749999999999998
 74
0
 49
-3.1749999999999998
 74
0
  0
LTYPE
  5
32
100
AcDbSymbolTableRecord
100
AcDbLinetypeTableRecord
  2
DIVIDEX2
 70
0
  3
Divide (2x) ________  .  .  ________  .  .  _
 72
65
 73
6
 40
63.5
 49
25.399999999999999
 74
0
 49
-12.699999999999999
 74
0
 49
0.0
 74
0
 49
-12.699999999999999
 74
0
 49
0.0
 74
0
 49
-12.699999999999999
 74
0
  0
LTYPE
  5
33
100
AcDbSymbolTableRecord
100
AcDbLinetypeTableRecord
  2
DOT2
 70
0
  3
Dot (.5x) .....................................
 72
65
 73
2
 40
3.1749999999999998
 49
0.0
 74
0
 49
-3.1749999999999998
 74
0
  0
LTYPE
  5
34
100
AcDbSymbolTableRecord
100
AcDbLinetypeTableRecord
  2
DASHDOT2
 70
0
  3
Dash dot (.5x) _._._._._._._._._._._._._._._.
 72
65
 73
4
 40
12.699999999999999
 49
6.3499999999999996
 74
0
 49
-3.1749999999999998
 74
0
 49
0.0
 74
0
 49
-3.1749999999999998
 74
0
  0
LTYPE
  5
35
100
AcDbSymbolTableRecord
100
AcDbLinetypeTableRecord
  2
DIVIDE
 70
0
  3
Divide ____ . . ____ . . ____ . . ____ . . ____
 72
65
 73
6
 40
31.75
 49
12.699999999999999
 74
0
 49
-6.3499999999999996
 74
0
 49
0.0
 74
0
 49
-6.3499999999999996
 74
0
 49
0.0
 74
0
 49
-6.3499999999999996
 74
0
  0
LTYPE
  5
36
100
AcDbSymbolTableRecord
100
AcDbLinetypeTableRecord
  2
DASHDOT
 70
0
  3
Dash dot __ . __ . __ . __ . __ . __ . __ . __
 72
65
 73
4
 40
25.399999999999999
 49
12.699999999999999
 74
0
 49
-6.3499999999999996
 74
0
 49
0.0
 74
0
 49
-6.3499999999999996
 74
0
  0
LTYPE
  5
37
100
AcDbSymbolTableRecord
100
AcDbLinetypeTableRecord
  2
BORDER
 70
0
  3
Border __ __ . __ __ . __ __ . __ __ . __ __ .
 72
65
 73
6
 40
44.450000000000003
 49
12.699999999999999
 74
0
 49
-6.3499999999999996
 74
0
 49
12.699999999999999
 74
0
 49
-6.3499999999999996
 74
0
 49
0.0
 74
0
 49
-6.3499999999999996
 74
0
  0
LTYPE
  5
38
100
AcDbSymbolTableRecord
100
AcDbLinetypeTableRecord
  2
DASHDOTX2
 70
0
  3
Dash dot (2x) ____  .  ____  .  ____  .  ___
 72
65
 73
4
 40
50.799999999999997
 49
25.399999999999999
 74
0
 49
-12.699999999999999
 74
0
 49
0.0
 74
0
 49
-12.699999999999999
 74
0
  0
LTYPE
  5
39
100
AcDbSymbolTableRecord
100
AcDbLinetypeTableRecord
  2
CENTERX2
 70
0
  3
Center (2x) ________  __  ________  __  _____
 72
65
 73
4
 40
101.59999999999999
 49
63.5
 74
0
 49
-12.699999999999999
 74
0
 49
12.699999999999999
 74
0
 49
-12.699999999999999
 74
0
  0
LTYPE
  5
3A
100
AcDbSymbolTableRecord
100
AcDbLinetypeTableRecord
  2
BORDER2
 70
0
  3
Border (.5x) __.__.__.__.__.__.__.__.__.__.__.
 72
65
 73
6
 40
22.225000000000001
 49
6.3499999999999996
 74
0
 49
-3.1749999999999998
 74
0
 49
6.3499999999999996
 74
0
 49
-3.1749999999999998
 74
0
 49
0.0
 74
0
 49
-3.1749999999999998
 74
0
  0
LTYPE
  5
3B
100
AcDbSymbolTableRecord
100
AcDbLinetypeTableRecord
  2
BORDERX2
 70
0
  3
Border (2x) ____  ____  .  ____  ____  .  ___
 72
65
 73
6
 40
88.900000000000006
 49
25.399999999999999
 74
0
 49
-12.699999999999999
 74
0
 49
25.399999999999999
 74
0
 49
-12.699999999999999
 74
0
 49
0.0
 74
0
 49
-12.699999999999999
 74
0
  0
LTYPE
  5
16
100
AcDbSymbolTableRecord
100
AcDbLinetypeTableRecord
  2
CONTINUOUS
 70
0
  3
Solid line
 72
65
 73
0
 40
0.0
  0
LTYPE
  5
14
100
AcDbSymbolTableRecord
100
AcDbLinetypeTableRecord
  2
BYBLOCK
 70
0
  3

 72
65
 73
0
 40
0.0
  0
LTYPE
  5
15
100
AcDbSymbolTableRecord
100
AcDbLinetypeTableRecord
  2
BYLAYER
 70
0
  3

 72
65
 73
0
 40
0.0
  0
LTYPE
  5
3C
100
AcDbSymbolTableRecord
100
AcDbLinetypeTableRecord
  2
DASHED2
 70
0
  3
Dashed (.5x) _ _ _ _ _ _ _ _ _ _ _ _ _ _ _ _ _
 72
65
 73
2
 40
9.5250000000000004
 49
6.3499999999999996
 74
0
 49
-3.1749999999999998
 74
0
  0
LTYPE
  5
3D
100
AcDbSymbolTableRecord
100
AcDbLinetypeTableRecord
  2
CENTER
 70
0
  3
Center ____ _ ____ _ ____ _ ____ _ ____ _ ____
 72
65
 73
4
 40
50.799999999999997
 49
31.75
 74
0
 49
-6.3499999999999996
 74
0
 49
6.3499999999999996
 74
0
 49
-6.3499999999999996
 74
0
  0
LTYPE
  5
3E
100
AcDbSymbolTableRecord
100
AcDbLinetypeTableRecord
  2
DIVIDE2
 70
0
  3
Divide (.5x) __..__..__..__..__..__..__..__.._
 72
65
 73
6
 40
15.875
 49
6.3499999999999996
 74
0
 49
-3.1749999999999998
 74
0
 49
0.0
 74
0
 49
-3.1749999999999998
 74
0
 49
0.0
 74
0
 49
-3.1749999999999998
 74
0
  0
LTYPE
  5
3F
100
AcDbSymbolTableRecord
100
AcDbLinetypeTableRecord
  2
DASHED
 70
0
  3
Dashed __ __ __ __ __ __ __ __ __ __ __ __ __ _
 72
65
 73
2
 40
19.050000000000001
 49
12.699999999999999
 74
0
 49
-6.3499999999999996
 74
0
  0
LTYPE
  5
40
100
AcDbSymbolTableRecord
100
AcDbLinetypeTableRecord
  2
DOTX2
 70
0
  3
Dot (2x) .  .  .  .  .  .  .  .  .  .  .  .  .
 72
65
 73
2
 40
12.699999999999999
 49
0.0
 74
0
 49
-12.699999999999999
 74
0
  0
LTYPE
  5
41
100
AcDbSymbolTableRecord
100
AcDbLinetypeTableRecord
  2
DASHEDX2
 70
0
  3
Dashed (2x) ____  ____  ____  ____  ____  ___
 72
65
 73
2
 40
38.100000000000001
 49
25.399999999999999
 74
0
 49
-12.699999999999999
 74
0
  0
LTYPE
  5
42
100
AcDbSymbolTableRecord
100
AcDbLinetypeTableRecord
  2
DOT
 70
0
  3
Dot . . . . . . . . . . . . . . . . . . . . . .
 72
65
 73
2
 40
6.3499999999999996
 49
0.0
 74
0
 49
-6.3499999999999996
 74
0
  0
ENDTAB
  0
TABLE
  2
LAYER
  5
2
100
AcDbSymbolTable
 70
5
  0
LAYER
  5
43
100
AcDbSymbolTableRecord
100
AcDbLayerTableRecord
  2
exp0
 70
0
 62
1
420
16711680
  6
CONTINUOUS
370
-3
390
F
  0
LAYER
  5
44
100
AcDbSymbolTableRecord
100
AcDbLayerTableRecord
  2
exp1
 70
1
 62
-2
420
16776960
  6
CONTINUOUS
370
-3
390
F
  0
LAYER
  5
45
100
AcDbSymbolTableRecord
100
AcDbLayerTableRecord
  2
exp2
 70
1
 62
-3
420
65280
  6
CONTINUOUS
370
-3
390
F
  0
LAYER
  5
46
100
AcDbSymbolTableRecord
100
AcDbLayerTableRecord
  2
Phenolic
 70
0
 62
4
420
65535
  6
CONTINUOUS
370
25
390
F
  0
LAYER
  5
10
100
AcDbSymbolTableRecord
100
AcDbLayerTableRecord
  2
0
 70
1
 62
-7
420
16777215
  6
CONTINUOUS
370
25
390
F
  0
ENDTAB
  0
TABLE
  2
STYLE
  5
3
100
AcDbSymbolTable
 70
0
  0
ENDTAB
  0
TABLE
  2
VIEW
  5
6
100
AcDbSymbolTable
 70
0
  0
ENDTAB
  0
TABLE
  2
UCS
  5
7
100
AcDbSymbolTable
 70
0
  0
ENDTAB
  0
TABLE
  2
APPID
  5
9
100
AcDbSymbolTable
 70
1
  0
APPID
  5
47
100
AcDbSymbolTableRecord
100
AcDbRegAppTableRecord
  2
QCAD
 70
0
  0
ENDTAB
  0
TABLE
  2
DIMSTYLE
  5
A
100
AcDbSymbolTable
 70
1
100
AcDbDimStyleTable
 71
0
  0
DIMSTYLE
105
27
100
AcDbSymbolTableRecord
100
AcDbDimStyleTableRecord
  2
Standard
 41
0.5
 42
0.125
 43
3.75
 44
0.25
 70
0
 73
0
 74
0
 77
1
 78
8
140
0.5
141
2.5
143
0.03937007874016
147
0.125
171
3
172
1
271
2
272
2
274
3
278
44
283
0
284
8
340
11
  0
ENDTAB
  0
TABLE
  2
BLOCK_RECORD
  5
1
100
AcDbSymbolTable
 70
1
  0
BLOCK_RECORD
  5
1F
100
AcDbSymbolTableRecord
100
AcDbBlockTableRecord
  2
*Model_Space
340
22
  0
BLOCK_RECORD
  5
1B
100
AcDbSymbolTableRecord
100
AcDbBlockTableRecord
  2
*Paper_Space
340
1E
  0
BLOCK_RECORD
  5
23
100
AcDbSymbolTableRecord
100
AcDbBlockTableRecord
  2
*Paper_Space0
340
26
  0
BLOCK_RECORD
  5
48
100
AcDbSymbolTableRecord
100
AcDbBlockTableRecord
  2
*Model_Space
340
0
  0
ENDTAB
  0
ENDSEC
  0
SECTION
  2
BLOCKS
  0
BLOCK
  5
20
100
AcDbEntity
  8
0
100
AcDbBlockBegin
  2
*Model_Space
 70
0
 10
0.0
 20
0.0
 30
0.0
  3
*Model_Space
  1

  0
ENDSEC
  0
SECTION
  2
ENTITIES
  0
CIRCLE
  5
49
100
AcDbEntity
100
AcDbCircle
  8
Phenolic
 62
256
370
-1
  6
BYLAYER
 10
0.0
 20
0.0
 30
0.0
 40
11.999999999999998
  0
LINE
  5
4A
100
AcDbEntity
100
AcDbLine
  8
0
 62
256
370
-1
  6
BYLAYER
 10
0.0
 20
0.0
 30
0.0
 11
50.000000000000014
 21
86.602540378443862
 31
0.0
  0
LINE
  5
4B
100
AcDbEntity
100
AcDbLine
  8
0
 62
256
370
-1
  6
BYLAYER
 10
0.0
 20
0.0
 30
0.0
 11
-49.999999999999979
 21
86.602540378443877
 31
0.0
  0
LINE
  5
4C
100
AcDbEntity
100
AcDbLine
  8
0
 62
256
370
-1
  6
BYLAYER
 10
0.0
 20
0.0
 30
0.0
 11
-100.0
 21
0.0000000000000122
 31
0.0
  0
LINE
  5
4D
100
AcDbEntity
100
AcDbLine
  8
0
 62
256
370
-1
  6
BYLAYER
 10
0.0
 20
0.0
 30
0.0
 11
-50.000000000000043
 21
-86.602540378443834
 31
0.0
  0
LINE
  5
4E
100
AcDbEntity
100
AcDbLine
  8
0
 62
256
370
-1
  6
BYLAYER
 10
0.0
 20
0.0
 30
0.0
 11
50.000000000000014
 21
-86.602540378443862
 31
0.0
  0
LINE
  5
4F
100
AcDbEntity
100
AcDbLine
  8
0
 62
256
370
-1
  6
BYLAYER
 10
0.0
 20
0.0
 30
0.0
 11
100.0
 21
-0.0000000000000245
 31
0.0
  0
DIMENSION
  5
50
100
AcDbEntity
  8
Phenolic
 62
256
370
-1
  6
BYLAYER
100
AcDbDimension
 10
-11.999999999999995
 20
15.000000000000002
 30
0.0
 11
0.0000000000000046
 21
15.375
 31
0.0
 70
1
 71
8
 72
2
 41
1.0
 42
0.0
  1

  3
Standard
100
AcDbAlignedDimension
 13
-12.0
 23
0.0000000000000015
 33
0.0
 14
11.999999999999998
 24
0.0
 34
0.0
1001
ACAD
1000
DSTYLE
1002
{
1070
144
1040
1
1002
}
  0
CIRCLE
  5
51
100
AcDbEntity
100
AcDbCircle
  8
0
 62
256
370
-1
  6
BYLAYER
 10
0.0
 20
0.0
 30
0.0
 40
11.099999999999998
  0
CIRCLE
  5
52
100
AcDbEntity
100
AcDbCircle
  8
0
 62
256
370
-1
  6
BYLAYER
 10
0.0
 20
0.0
 30
0.0
 40
10.199999999999998
  0
LINE
  5
53
100
AcDbEntity
100
AcDbLine
  8
0
 62
256
370
-1
  6
BYLAYER
 10
0.7794228634059942
 20
-0.4500000000000011
 30
0.0
 11
-49.220577136594045
 21
-87.052540378443837
 31
0.0
  0
LINE
  5
54
100
AcDbEntity
100
AcDbLine
  8
0
 62
256
370
-1
  6
BYLAYER
 10
1.5588457268119884
 20
-0.9000000000000022
 30
0.0
 11
-48.441154273188047
 21
-87.50254037844384
 31
0.0
  0
LINE
  5
55
100
AcDbEntity
100
AcDbLine
  8
0
 62
256
370
-1
  6
BYLAYER
 10
-0.7794228634059942
 20
0.450000000000001
 30
0.0
 11
-50.77942286340604
 21
-86.152540378443831
 31
0.0
  0
LINE
  5
56
100
AcDbEntity
100
AcDbLine
  8
0
 62
256
370
-1
  6
BYLAYER
 10
-1.5588457268119884
 20
0.900000000000002
 30
0.0
 11
-51.558845726812038
 21
-85.702540378443828
 31
0.0
  0
LINE
  5
57
100
AcDbEntity
100
AcDbLine
  8
0
 62
256
370
-1
  6
BYLAYER
 10
-0.0000000000000002
 20
-0.9
 30
0.0
 11
-100.0
 21
-0.8999999999999878
 31
0.0
  0
LINE
  5
58
100
AcDbEntity
100
AcDbLine
  8
0
 62
256
370
-1
  6
BYLAYER
 10
-0.0000000000000003
 20
-1.8
 30
0.0
 11
-100.0
 21
-1.7999999999999878
 31
0.0
  0
LINE
  5
59
100
AcDbEntity
100
AcDbLine
  8
0
 62
256
370
-1
  6
BYLAYER
 10
0.0000000000000001
 20
0.9
 30
0.0
 11
-100.0
 21
0.9000000000000122
 31
0.0
  0
LINE
  5
5A
100
AcDbEntity
100
AcDbLine
  8
0
 62
256
370
-1
  6
BYLAYER
 10
0.0000000000000001
 20
1.8
 30
0.0
 11
-100.0
 21
1.8000000000000123
 31
0.0
  0
LINE
  5
5B
100
AcDbEntity
100
AcDbLine
  8
0
 62
256
370
-1
  6
BYLAYER
 10
-0.779422863405995
 20
-0.4499999999999997
 30
0.0
 11
-50.779422863405976
 21
86.152540378443874
 31
0.0
  0
LINE
  5
5C
100
AcDbEntity
100
AcDbLine
  8
0
 62
256
370
-1
  6
BYLAYER
 10
-1.55884572681199
 20
-0.8999999999999995
 30
0.0
 11
-51.558845726811974
 21
85.702540378443871
 31
0.0
  0
LINE
  5
5D
100
AcDbEntity
100
AcDbLine
  8
0
 62
256
370
-1
  6
BYLAYER
 10
0.7794228634059949
 20
0.4499999999999998
 30
0.0
 11
-49.220577136593981
 21
87.052540378443879
 31
0.0
  0
LINE
  5
5E
100
AcDbEntity
100
AcDbLine
  8
0
 62
256
370
-1
  6
BYLAYER
 10
1.5588457268119897
 20
0.8999999999999997
 30
0.0
 11
-48.441154273187983
 21
87.502540378443882
 31
0.0
  0
LINE
  5
5F
100
AcDbEntity
100
AcDbLine
  8
0
 62
256
370
-1
  6
BYLAYER
 10
-0.7794228634059947
 20
0.4500000000000003
 30
0.0
 11
49.220577136594017
 21
87.052540378443865
 31
0.0
  0
LINE
  5
60
100
AcDbEntity
100
AcDbLine
  8
0
 62
256
370
-1
  6
BYLAYER
 10
-1.5588457268119893
 20
0.9000000000000006
 30
0.0
 11
48.441154273188019
 21
87.502540378443868
 31
0.0
  0
LINE
  5
61
100
AcDbEntity
100
AcDbLine
  8
0
 62
256
370
-1
  6
BYLAYER
 10
0.7794228634059948
 20
-0.45
 30
0.0
 11
50.779422863406012
 21
86.152540378443859
 31
0.0
  0
LINE
  5
62
100
AcDbEntity
100
AcDbLine
  8
0
 62
256
370
-1
  6
BYLAYER
 10
1.5588457268119895
 20
-0.9
 30
0.0
 11
51.55884572681201
 21
85.702540378443857
 31
0.0
  0
LINE
  5
63
100
AcDbEntity
100
AcDbLine
  8
0
 62
256
370
-1
  6
BYLAYER
 10
0.0000000000000003
 20
0.9
 30
0.0
 11
100.0
 21
0.8999999999999755
 31
0.0
  0
LINE
  5
64
100
AcDbEntity
100
AcDbLine
  8
0
 62
256
370
-1
  6
BYLAYER
 10
0.0000000000000006
 20
1.8
 30
0.0
 11
100.0
 21
1.7999999999999754
 31
0.0
  0
LINE
  5
65
100
AcDbEntity
100
AcDbLine
  8
0
 62
256
370
-1
  6
BYLAYER
 10
-0.0000000000000002
 20
-0.9
 30
0.0
 11
100.0
 21
-0.9000000000000246
 31
0.0
  0
LINE
  5
66
100
AcDbEntity
100
AcDbLine
  8
0
 62
256
370
-1
  6
BYLAYER
 10
-0.0000000000000003
 20
-1.8
 30
0.0
 11
100.0
 21
-1.8000000000000247
 31
0.0
  0
LINE
  5
67
100
AcDbEntity
100
AcDbLine
  8
0
 62
256
370
-1
  6
BYLAYER
 10
0.7794228634059948
 20
0.45
 30
0.0
 11
50.779422863406012
 21
-86.152540378443859
 31
0.0
  0
LINE
  5
68
100
AcDbEntity
100
AcDbLine
  8
0
 62
256
370
-1
  6
BYLAYER
 10
1.5588457268119895
 20
0.9
 30
0.0
 11
51.55884572681201
 21
-85.702540378443857
 31
0.0
  0
LINE
  5
69
100
AcDbEntity
100
AcDbLine
  8
0
 62
256
370
-1
  6
BYLAYER
 10
-0.7794228634059948
 20
-0.4500000000000001
 30
0.0
 11
49.220577136594017
 21
-87.052540378443865
 31
0.0
  0
LINE
  5
6A
100
AcDbEntity
100
AcDbLine
  8
0
 62
256
370
-1
  6
BYLAYER
 10
-1.5588457268119895
 20
-0.9000000000000002
 30
0.0
 11
48.441154273188019
 21
-87.502540378443868
 31
0.0
  0
POINT
  5
6B
100
AcDbEntity
100
AcDbPoint
  8
exp0
 62
256
370
-1
  6
BYLAYER
 10
-0.0000000000000006
 20
-3.5999999999999992
 30
0.0
  0
POINT
  5
6C
100
AcDbEntity
100
AcDbPoint
  8
exp0
 62
256
370
-1
  6
BYLAYER
 10
3.461114432392463
 20
-9.5948260477136618
 30
0.0
  0
POINT
  5
6D
100
AcDbEntity
100
AcDbPoint
  8
exp0
 62
256
370
-1
  6
BYLAYER
 10
-3.4611144323924679
 20
-9.5948260477136618
 30
0.0
  0
LINE
  5
6E
100
AcDbEntity
100
AcDbLine
  8
exp0
 62
256
370
-1
  6
BYLAYER
 10
3.461114432392463
 20
-9.5948260477136618
 30
0.0
 11
-0.0000000000000006
 21
-3.5999999999999992
 31
0.0
  0
LINE
  5
6F
100
AcDbEntity
100
AcDbLine
  8
exp0
 62
256
370
-1
  6
BYLAYER
 10
-0.0000000000000006
 20
-3.5999999999999992
 30
0.0
 11
-3.4611144323924679
 21
-9.5948260477136618
 31
0.0
  0
ARC
  5
70
100
AcDbEntity
  8
exp0
 62
256
370
-1
  6
BYLAYER
100
AcDbCircle
 10
0.0
 20
0.0
 30
0.0
 40
10.199999999999999
100
AcDbArc
 50
250.16424862172343
 51
289.83575137827648
  0
DIMENSION
  5
71
100
AcDbEntity
  8
exp0
 62
256
370
-1
  6
BYLAYER
100
AcDbDimension
 10
-5.333889730473488
 20
-0.5204773282833433
 30
0.0
 11
-7.3892064730888851
 21
-3.3303903521401743
 31
0.0
 70
1
 71
8
 72
2
 41
1.0
 42
0.0
  1

  3
Standard
100
AcDbAlignedDimension
 13
-0.000000000000001
 23
-3.6000000000000001
 33
0.0
 14
-3.4611144323924679
 24
-9.5948260477136618
 34
0.0
1001
ACAD
1000
DSTYLE
1002
{
1070
144
1040
1
1002
}
  0
DIMENSION
  5
72
100
AcDbEntity
  8
exp0
 62
256
370
-1
  6
BYLAYER
100
AcDbDimension
 10
3.461114432392459
 20
-9.5948260477136635
 30
0.0
 11
-0.0000000000000029
 21
-15.749515496597098
 31
0.0
 70
2
 71
8
 72
2
 41
1.0
 42
0.0
  1

  3
Standard
100
AcDb2LineAngularDimension
 13
0.0
 23
0.0
 33
0.0
 14
-3.461114432392471
 24
-9.59482604771366
 34
0.0
 15
0.0
 25
0.0
 35
0.0
 16
2.0
 26
-16.0
 36
0.0
  0
ARC
  5
73
100
AcDbEntity
  8
exp1
 62
256
370
-1
  6
BYLAYER
100
AcDbCircle
 10
0.0
 20
0.0
 30
0.0
 40
11.1
100
AcDbArc
 50
250.16424862172343
 51
289.83575137827648
  0
LINE
  5
74
100
AcDbEntity
100
AcDbLine
  8
exp1
 62
256
370
-1
  6
BYLAYER
 10
-0.7794228634059949
 20
-3.1499999999999981
 30
0.0
 11
-4.2405372957984619
 21
-9.1448260477136607
 31
0.0
  0
LINE
  5
75
100
AcDbEntity
100
AcDbLine
  8
exp1
 62
256
370
-1
  6
BYLAYER
 10
4.2405372957984575
 20
-9.1448260477136607
 30
0.0
 11
0.779422863405994
 21
-3.149999999999999
 31
0.0
  0
ARC
  5
76
100
AcDbEntity
  8
exp1
 62
256
370
-1
  6
BYLAYER
100
AcDbCircle
 10
-0.000000000000001
 20
-3.6000000000000001
 30
0.0
 40
0.9000000000000007
100
AcDbArc
 50
30.000000000000053
 51
149.99999999999991
  0
ARC
  5
77
100
AcDbEntity
  8
exp1
 62
256
370
-1
  6
BYLAYER
100
AcDbCircle
 10
-3.4611144323924679
 20
-9.5948260477136618
 30
0.0
 40
0.8999999999999978
100
AcDbArc
 50
149.9999999999998
 51
250.1642486217232
  0
ARC
  5
78
100
AcDbEntity
  8
exp1
 62
256
370
-1
  6
BYLAYER
100
AcDbCircle
 10
3.4611144323924639
 20
-9.5948260477136635
 30
0.0
 40
0.8999999999999985
100
AcDbArc
 50
289.83575137827626
 51
30.000000000000192
  0
DIMENSION
  5
79
100
AcDbEntity
  8
exp1
 62
256
370
-1
  6
BYLAYER
100
AcDbDimension
 10
-0.7794228634059959
 20
-3.1499999999999986
 30
0.0
 11
-0.0000000000000002
 21
2.9361687202997437
 31
0.0
 70
2
 71
8
 72
2
 41
1.0
 42
0.0
  1

  3
Standard
100
AcDb2LineAngularDimension
 13
-0.000000000000001
 23
-3.6000000000000001
 33
0.0
 14
0.779422863405994
 24
-3.149999999999999
 34
0.0
 15
-0.000000000000001
 25
-3.6000000000000001
 35
0.0
 16
-5.0
 26
0.0
 36
0.0
  0
DIMENSION
  5
7A
100
AcDbEntity
  8
exp1
 62
256
370
-1
  6
BYLAYER
100
AcDbDimension
 10
4.2405372957984557
 20
-9.1448260477136625
 30
0.0
 11
8.6732272929131362
 21
-11.500344815967175
 31
0.0
 70
2
 71
8
 72
2
 41
1.0
 42
0.0
  1

  3
Standard
100
AcDb2LineAngularDimension
 13
3.4611144323924639
 23
-9.5948260477136635
 33
0.0
 14
3.7665068823094412
 24
-10.44142834604134
 34
0.0
 15
3.4611144323924639
 25
-9.5948260477136635
 35
0.0
 16
5.4714503235890293
 26
-15.167835420932597
 36
0.0
  0
ARC
  5
7B
100
AcDbEntity
  8
exp2
 62
256
370
-1
  6
BYLAYER
100
AcDbCircle
 10
-3.4611144323924679
 20
-9.5948260477136618
 30
0.0
 40
1.7999999999999978
100
AcDbArc
 50
149.9999999999998
 51
250.1642486217232
  0
ARC
  5
7C
100
AcDbEntity
  8
exp2
 62
256
370
-1
  6
BYLAYER
100
AcDbCircle
 10
3.4611144323924639
 20
-9.5948260477136635
 30
0.0
 40
1.7999999999999985
100
AcDbArc
 50
289.83575137827626
 51
30.000000000000192
  0
LINE
  5
7D
100
AcDbEntity
100
AcDbLine
  8
exp2
 62
256
370
-1
  6
BYLAYER
 10
5.0199601592044525
 20
-8.6948260477136596
 30
0.0
 11
1.5588457268119886
 21
-2.6999999999999988
 31
0.0
  0
ARC
  5
7E
100
AcDbEntity
  8
exp2
 62
256
370
-1
  6
BYLAYER
100
AcDbCircle
 10
-0.000000000000001
 20
-3.6000000000000001
 30
0.0
 40
1.8000000000000007
100
AcDbArc
 50
30.000000000000053
 51
149.99999999999991
  0
LINE
  5
7F
100
AcDbEntity
100
AcDbLine
  8
exp2
 62
256
370
-1
  6
BYLAYER
 10
-1.5588457268119891
 20
-2.6999999999999971
 30
0.0
 11
-5.019960159204456
 21
-8.6948260477136596
 31
0.0
  0
ARC
  5
80
100
AcDbEntity
  8
exp2
 62
256
370
-1
  6
BYLAYER
100
AcDbCircle
 10
0.0
 20
0.0
 30
0.0
 40
12.0
100
AcDbArc
 50
250.16424862172343
 51
289.83575137827648
  0
ENDSEC
  0
SECTION
  2
OBJECTS
  0
DICTIONARY
  5
C
100
AcDbDictionary
280
0
281
1
  3
ACAD_GROUP
350
D
  3
ACAD_LAYOUT
350
1A
  3
ACAD_MLINESTYLE
350
17
  3
ACAD_PLOTSETTINGS
350
19
  3
ACAD_PLOTSTYLENAME
350
E
  3
AcDbVariableDictionary
350
81
  3
QCAD_OBJECTS
350
82
  0
DICTIONARY
  5
D
100
AcDbDictionary
280
0
281
1
  0
ACDBDICTIONARYWDFLT
  5
E
100
AcDbDictionary
281
1
  3
Normal
350
F
100
AcDbDictionaryWithDefault
340
F
  0
ACDBPLACEHOLDER
  5
F
  0
DICTIONARY
  5
17
100
AcDbDictionary
280
0
281
1
  3
Standard
350
18
  0
MLINESTYLE
  5
18
100
AcDbMlineStyle
  2
STANDARD
 70
0
  3

 62
256
 51
90.0
 52
90.0
 71
2
 49
0.5
 62
256
  6
BYLAYER
 49
-0.5
 62
256
  6
BYLAYER
  0
DICTIONARY
  5
19
100
AcDbDictionary
280
0
281
1
  0
DICTIONARY
  5
1A
100
AcDbDictionary
281
1
  3
Layout1
350
1E
  3
Layout2
350
26
  3
Model
350
22
  0
LAYOUT
  5
1E
100
AcDbPlotSettings
  1

  2
C:\Program Files\AutoCAD 2002\plotters\DWF ePlot (optimized for plotting).pc3
  4

  6

 40
0.0
 41
0.0
 42
0.0
 43
0.0
 44
0.0
 45
0.0
 46
0.0
 47
0.0
 48
0.0
 49
0.0
140
0.0
141
0.0
142
1.0
143
1.0
 70
688
 72
0
 73
0
 74
5
  7

 75
16
147
1.0
148
0.0
149
0.0
100
AcDbLayout
  1
Layout1
 70
1
 71
1
 10
0.0
 20
0.0
 11
420.0
 21
297.0
 12
0.0
 22
0.0
 32
0.0
 14
100000000000000000000.0
 24
100000000000000000000.0
 34
100000000000000000000.0
 15
-100000000000000000000.0
 25
-100000000000000000000.0
 35
-100000000000000000000.0
146
0.0
 13
0.0
 23
0.0
 33
0.0
 16
1.0
 26
0.0
 36
0.0
 17
0.0
 27
1.0
 37
0.0
 76
0
330
1B
  0
LAYOUT
  5
22
100
AcDbPlotSettings
  1

  2
C:\Program Files\AutoCAD 2002\plotters\DWF ePlot (optimized for plotting).pc3
  4

  6

 40
0.0
 41
0.0
 42
0.0
 43
0.0
 44
0.0
 45
0.0
 46
0.0
 47
0.0
 48
0.0
 49
0.0
140
0.0
141
0.0
142
1.0
143
1.0
 70
1712
 72
0
 73
0
 74
0
  7

 75
0
147
1.0
148
0.0
149
0.0
100
AcDbLayout
  1
Model
 70
1
 71
0
 10
0.0
 20
0.0
 11
12.0
 21
9.0
 12
0.0
 22
0.0
 32
0.0
 14
0.0
 24
0.0
 34
0.0
 15
0.0
 25
0.0
 35
0.0
146
0.0
 13
0.0
 23
0.0
 33
0.0
 16
1.0
 26
0.0
 36
0.0
 17
0.0
 27
1.0
 37
0.0
 76
0
330
1F
  0
LAYOUT
  5
26
100
AcDbPlotSettings
  1

  2
C:\Program Files\AutoCAD 2002\plotters\DWF ePlot (optimized for plotting).pc3
  4

  6

 40
0.0
 41
0.0
 42
0.0
 43
0.0
 44
0.0
 45
0.0
 46
0.0
 47
0.0
 48
0.0
 49
0.0
140
0.0
141
0.0
142
1.0
143
1.0
 70
688
 72
0
 73
0
 74
5
  7

 75
16
147
1.0
148
0.0
149
0.0
100
AcDbLayout
  1
Layout2
 70
1
 71
2
 10
0.0
 20
0.0
 11
12.0
 21
9.0
 12
0.0
 22
0.0
 32
0.0
 14
0.0
 24
0.0
 34
0.0
 15
0.0
 25
0.0
 35
0.0
146
0.0
 13
0.0
 23
0.0
 33
0.0
 16
1.0
 26
0.0
 36
0.0
 17
0.0
 27
1.0
 37
0.0
 76
0
330
23
  0
DICTIONARY
  5
81
100
AcDbDictionary
281
1
  3
DIMASSOC
350
84
  3
HIDETEXT
350
83
  0
DICTIONARYVAR
  5
83
100
DictionaryVariables
280
0
  1
2
  0
DICTIONARYVAR
  5
84
100
DictionaryVariables
280
0
  1
1
  0
DICTIONARY
  5
82
100
AcDbDictionary
281
1
  3
DimensionSettings/AngularFormat
350
85
  3
DimensionSettings/AngularPrecision
350
86
  3
DimensionSettings/KeepProportions
350
87
  3
DimensionSettings/LinearFormat
350
88
  3
DimensionSettings/LinearPrecision
350
89
  3
Grid/DisplayGrid00
350
8A
  3
Grid/DisplayGrid01
350
8B
  3
Grid/DisplayGrid02
350
8C
  3
Grid/DisplayGrid03
350
8D
  3
Grid/GridSpacingX00
350
8E
  3
Grid/GridSpacingX01
350
8F
  3
Grid/GridSpacingX02
350
90
  3
Grid/GridSpacingX03
350
91
  3
Grid/GridSpacingY00
350
92
  3
Grid/GridSpacingY01
350
93
  3
Grid/GridSpacingY02
350
94
  3
Grid/GridSpacingY03
350
95
  3
Grid/IsometricGrid00
350
96
  3
Grid/IsometricGrid01
350
97
  3
Grid/IsometricGrid02
350
98
  3
Grid/IsometricGrid03
350
99
  3
Grid/IsometricProjection00
350
9A
  3
Grid/IsometricProjection01
350
9B
  3
Grid/IsometricProjection02
350
9C
  3
Grid/IsometricProjection03
350
9D
  3
Grid/MetaGridSpacingX00
350
9E
  3
Grid/MetaGridSpacingX01
350
9F
  3
Grid/MetaGridSpacingX02
350
A0
  3
Grid/MetaGridSpacingX03
350
A1
  3
Grid/MetaGridSpacingY00
350
A2
  3
Grid/MetaGridSpacingY01
350
A3
  3
Grid/MetaGridSpacingY02
350
A4
  3
Grid/MetaGridSpacingY03
350
A5
  3
MultiPageSettings/Columns
350
A6
  3
MultiPageSettings/GlueMarginsBottom
350
A7
  3
MultiPageSettings/GlueMarginsLeft
350
A8
  3
MultiPageSettings/GlueMarginsRight
350
A9
  3
MultiPageSettings/GlueMarginsTop
350
AA
  3
MultiPageSettings/PrintCropMarks
350
AB
  3
MultiPageSettings/Rows
350
AC
  3
PageSettings/OffsetX
350
AD
  3
PageSettings/OffsetY
350
AE
  3
PageSettings/PageOrientation
350
AF
  3
PageSettings/PaperHeight
350
B0
  3
PageSettings/PaperWidth
350
B1
  3
PageSettings/Scale
350
B2
  3
PageSettings/ShowPaperBorders
350
B3
  3
UnitSettings/PaperUnit
350
B4
  0
XRECORD
  5
85
330
82
100
AcDbXrecord
280
1
 40
3.0
  0
XRECORD
  5
86
330
82
100
AcDbXrecord
280
1
 40
4.0
  0
XRECORD
  5
87
330
82
100
AcDbXrecord
280
1
290
1
  0
XRECORD
  5
88
330
82
100
AcDbXrecord
280
1
 40
2.0
  0
XRECORD
  5
89
330
82
100
AcDbXrecord
280
1
 40
4.0
  0
XRECORD
  5
8A
330
82
100
AcDbXrecord
280
1
290
1
  0
XRECORD
  5
8B
330
82
100
AcDbXrecord
280
1
290
1
  0
XRECORD
  5
8C
330
82
100
AcDbXrecord
280
1
290
1
  0
XRECORD
  5
8D
330
82
100
AcDbXrecord
280
1
290
1
  0
XRECORD
  5
8E
330
82
100
AcDbXrecord
280
1
1000
auto
  0
XRECORD
  5
8F
330
82
100
AcDbXrecord
280
1
1000
auto
  0
XRECORD
  5
90
330
82
100
AcDbXrecord
280
1
1000
auto
  0
XRECORD
  5
91
330
82
100
AcDbXrecord
280
1
1000
auto
  0
XRECORD
  5
92
330
82
100
AcDbXrecord
280
1
1000
auto
  0
XRECORD
  5
93
330
82
100
AcDbXrecord
280
1
1000
auto
  0
XRECORD
  5
94
330
82
100
AcDbXrecord
280
1
1000
auto
  0
XRECORD
  5
95
330
82
100
AcDbXrecord
280
1
1000
auto
  0
XRECORD
  5
96
330
82
100
AcDbXrecord
280
1
290
0
  0
XRECORD
  5
97
330
82
100
AcDbXrecord
280
1
290
0
  0
XRECORD
  5
98
330
82
100
AcDbXrecord
280
1
290
0
  0
XRECORD
  5
99
330
82
100
AcDbXrecord
280
1
290
0
  0
XRECORD
  5
9A
330
82
100
AcDbXrecord
280
1
 90
0
  0
XRECORD
  5
9B
330
82
100
AcDbXrecord
280
1
 90
0
  0
XRECORD
  5
9C
330
82
100
AcDbXrecord
280
1
 90
0
  0
XRECORD
  5
9D
330
82
100
AcDbXrecord
280
1
 90
0
  0
XRECORD
  5
9E
330
82
100
AcDbXrecord
280
1
1000
auto
  0
XRECORD
  5
9F
330
82
100
AcDbXrecord
280
1
1000
auto
  0
XRECORD
  5
A0
330
82
100
AcDbXrecord
280
1
1000
auto
  0
XRECORD
  5
A1
330
82
100
AcDbXrecord
280
1
1000
auto
  0
XRECORD
  5
A2
330
82
100
AcDbXrecord
280
1
1000
auto
  0
XRECORD
  5
A3
330
82
100
AcDbXrecord
280
1
1000
auto
  0
XRECORD
  5
A4
330
82
100
AcDbXrecord
280
1
1000
auto
  0
XRECORD
  5
A5
330
82
100
AcDbXrecord
280
1
1000
auto
  0
XRECORD
  5
A6
330
82
100
AcDbXrecord
280
1
 90
1
  0
XRECORD
  5
A7
330
82
100
AcDbXrecord
280
1
 40
0.0
  0
XRECORD
  5
A8
330
82
100
AcDbXrecord
280
1
 40
0.0
  0
XRECORD
  5
A9
330
82
100
AcDbXrecord
280
1
 40
0.0
  0
XRECORD
  5
AA
330
82
100
AcDbXrecord
280
1
 40
0.0
  0
XRECORD
  5
AB
330
82
100
AcDbXrecord
280
1
290
0
  0
XRECORD
  5
AC
330
82
100
AcDbXrecord
280
1
 90
1
  0
XRECORD
  5
AD
330
82
100
AcDbXrecord
280
1
 40
-14.961197454545434
  0
XRECORD
  5
AE
330
82
100
AcDbXrecord
280
1
 40
-26.144747590909063
  0
XRECORD
  5
AF
330
82
100
AcDbXrecord
280
1
1000
Portrait
  0
XRECORD
  5
B0
330
82
100
AcDbXrecord
280
1
 40
297.0
  0
XRECORD
  5
B1
330
82
100
AcDbXrecord
280
1
 40
210.0
  0
XRECORD
  5
B2
330
82
100
AcDbXrecord
280
1
1000
1:1.5
  0
XRECORD
  5
B3
330
82
100
AcDbXrecord
280
1
290
1
  0
XRECORD
  5
B4
330
82
100
AcDbXrecord
280
1
 90
4
  0
ENDSEC
  0
EOF
