999
dxflib 3.2.3.0
  0
SECTION
  2
HEADER
  9
$ACADVER
  1
AC1015
  9
$HANDSEED
  5
FFFF
  9
$AUNITS
 70
0
  9
$AUPREC
 70
2
  9
$DIMADEC
 70
4
  9
$DIMASZ
 40
0.125
  9
$DIMAUNIT
 70
0
  9
$DIMAZIN
 70
0
  9
$DIMDEC
 70
4
  9
$DIMEXE
 40
0.0625
  9
$DIMEXO
 40
0.03125
  9
$DIMGAP
 40
0.03125
  9
$DIMLFAC
 40
1.0
  9
$DIMLUNIT
 70
2
  9
$DIMSCALE
 40
1.0
  9
$DIMTIH
 70
0
  9
$DIMTSZ
 40
0.0
  9
$DIMTXT
 40
0.125
  9
$DIMZIN
 70
0
  9
$DWGCODEPAGE
  3
ANSI_1252
  9
$EXTMAX
 10
13.0
 20
12.302490000000001
 30
0.0
  9
$EXTMIN
 10
-12.302490000000001
 20
-12.7583302492
 30
0.0
  9
$INSBASE
 10
0.0
 20
0.0
 30
0.0
  9
$INSUNITS
 70
5
  9
$LIMMAX
 10
420.0
 20
297.0
  9
$LIMMIN
 10
0.0
 20
0.0
  9
$LTSCALE
 40
1.0
  9
$LUNITS
 70
2
  9
$LUPREC
 70
4
  9
$ORTHOMODE
 70
0
  9
$PINSBASE
 10
0.0
 20
0.0
 30
0.0
  9
$PLIMMAX
 10
0.00000135484
 20
0.00000191613
  9
$PLIMMIN
 10
0.0
 20
0.0
  9
$SPLINESEGS
 70
8
  9
$TEXTSTYLE
  7
STANDARD
  0
ENDSEC
  0
SECTION
  2
TABLES
  0
TABLE
  2
VPORT
  5
8
100
AcDbSymbolTable
 70
1
  0
VPORT
  5
30
100
AcDbSymbolTableRecord
100
AcDbViewportTableRecord
  2
*Active
 70
0
 10
0.0
 20
0.0
 11
1.0
 21
1.0
 12
286.30555555555549
 22
148.5
 13
0.0
 23
0.0
 14
10.0
 24
10.0
 15
10.0
 25
10.0
 16
0.0
 26
0.0
 36
1.0
 17
0.0
 27
0.0
 37
0.0
 40
297.0
 41
1.92798353909465
 42
50.0
 43
0.0
 44
0.0
 50
0.0
 51
0.0
 71
0
 72
100
 73
1
 74
3
 75
1
 76
1
 77
0
 78
0
281
0
 65
1
110
0.0
120
0.0
130
0.0
111
1.0
121
0.0
131
0.0
112
0.0
122
1.0
132
0.0
 79
0
146
0.0
  0
ENDTAB
  0
TABLE
  2
LTYPE
  5
5
100
AcDbSymbolTable
 70
21
  0
LTYPE
  5
31
100
AcDbSymbolTableRecord
100
AcDbLinetypeTableRecord
  2
CENTER2
 70
0
  3
Center (.5x) ___ _ ___ _ ___ _ ___ _ ___ _ ___
 72
65
 73
4
 40
28.574999999999999
 49
19.050000000000001
 74
0
 49
-3.1749999999999998
 74
0
 49
3.1749999999999998
 74
0
 49
-3.1749999999999998
 74
0
  0
LTYPE
  5
32
100
AcDbSymbolTableRecord
100
AcDbLinetypeTableRecord
  2
DIVIDEX2
 70
0
  3
Divide (2x) ________  .  .  ________  .  .  _
 72
65
 73
6
 40
63.5
 49
25.399999999999999
 74
0
 49
-12.699999999999999
 74
0
 49
0.0
 74
0
 49
-12.699999999999999
 74
0
 49
0.0
 74
0
 49
-12.699999999999999
 74
0
  0
LTYPE
  5
33
100
AcDbSymbolTableRecord
100
AcDbLinetypeTableRecord
  2
DOT2
 70
0
  3
Dot (.5x) .....................................
 72
65
 73
2
 40
3.1749999999999998
 49
0.0
 74
0
 49
-3.1749999999999998
 74
0
  0
LTYPE
  5
34
100
AcDbSymbolTableRecord
100
AcDbLinetypeTableRecord
  2
DASHDOT2
 70
0
  3
Dash dot (.5x) _._._._._._._._._._._._._._._.
 72
65
 73
4
 40
12.699999999999999
 49
6.3499999999999996
 74
0
 49
-3.1749999999999998
 74
0
 49
0.0
 74
0
 49
-3.1749999999999998
 74
0
  0
LTYPE
  5
35
100
AcDbSymbolTableRecord
100
AcDbLinetypeTableRecord
  2
DIVIDE
 70
0
  3
Divide ____ . . ____ . . ____ . . ____ . . ____
 72
65
 73
6
 40
31.75
 49
12.699999999999999
 74
0
 49
-6.3499999999999996
 74
0
 49
0.0
 74
0
 49
-6.3499999999999996
 74
0
 49
0.0
 74
0
 49
-6.3499999999999996
 74
0
  0
LTYPE
  5
36
100
AcDbSymbolTableRecord
100
AcDbLinetypeTableRecord
  2
DASHDOT
 70
0
  3
Dash dot __ . __ . __ . __ . __ . __ . __ . __
 72
65
 73
4
 40
25.399999999999999
 49
12.699999999999999
 74
0
 49
-6.3499999999999996
 74
0
 49
0.0
 74
0
 49
-6.3499999999999996
 74
0
  0
LTYPE
  5
37
100
AcDbSymbolTableRecord
100
AcDbLinetypeTableRecord
  2
BORDER
 70
0
  3
Border __ __ . __ __ . __ __ . __ __ . __ __ .
 72
65
 73
6
 40
44.450000000000003
 49
12.699999999999999
 74
0
 49
-6.3499999999999996
 74
0
 49
12.699999999999999
 74
0
 49
-6.3499999999999996
 74
0
 49
0.0
 74
0
 49
-6.3499999999999996
 74
0
  0
LTYPE
  5
38
100
AcDbSymbolTableRecord
100
AcDbLinetypeTableRecord
  2
DASHDOTX2
 70
0
  3
Dash dot (2x) ____  .  ____  .  ____  .  ___
 72
65
 73
4
 40
50.799999999999997
 49
25.399999999999999
 74
0
 49
-12.699999999999999
 74
0
 49
0.0
 74
0
 49
-12.699999999999999
 74
0
  0
LTYPE
  5
39
100
AcDbSymbolTableRecord
100
AcDbLinetypeTableRecord
  2
CENTERX2
 70
0
  3
Center (2x) ________  __  ________  __  _____
 72
65
 73
4
 40
101.59999999999999
 49
63.5
 74
0
 49
-12.699999999999999
 74
0
 49
12.699999999999999
 74
0
 49
-12.699999999999999
 74
0
  0
LTYPE
  5
3A
100
AcDbSymbolTableRecord
100
AcDbLinetypeTableRecord
  2
BORDER2
 70
0
  3
Border (.5x) __.__.__.__.__.__.__.__.__.__.__.
 72
65
 73
6
 40
22.225000000000001
 49
6.3499999999999996
 74
0
 49
-3.1749999999999998
 74
0
 49
6.3499999999999996
 74
0
 49
-3.1749999999999998
 74
0
 49
0.0
 74
0
 49
-3.1749999999999998
 74
0
  0
LTYPE
  5
3B
100
AcDbSymbolTableRecord
100
AcDbLinetypeTableRecord
  2
BORDERX2
 70
0
  3
Border (2x) ____  ____  .  ____  ____  .  ___
 72
65
 73
6
 40
88.900000000000006
 49
25.399999999999999
 74
0
 49
-12.699999999999999
 74
0
 49
25.399999999999999
 74
0
 49
-12.699999999999999
 74
0
 49
0.0
 74
0
 49
-12.699999999999999
 74
0
  0
LTYPE
  5
16
100
AcDbSymbolTableRecord
100
AcDbLinetypeTableRecord
  2
CONTINUOUS
 70
0
  3
Solid line
 72
65
 73
0
 40
0.0
  0
LTYPE
  5
14
100
AcDbSymbolTableRecord
100
AcDbLinetypeTableRecord
  2
BYBLOCK
 70
0
  3

 72
65
 73
0
 40
0.0
  0
LTYPE
  5
15
100
AcDbSymbolTableRecord
100
AcDbLinetypeTableRecord
  2
BYLAYER
 70
0
  3

 72
65
 73
0
 40
0.0
  0
LTYPE
  5
3C
100
AcDbSymbolTableRecord
100
AcDbLinetypeTableRecord
  2
DASHED2
 70
0
  3
Dashed (.5x) _ _ _ _ _ _ _ _ _ _ _ _ _ _ _ _ _
 72
65
 73
2
 40
9.5250000000000004
 49
6.3499999999999996
 74
0
 49
-3.1749999999999998
 74
0
  0
LTYPE
  5
3D
100
AcDbSymbolTableRecord
100
AcDbLinetypeTableRecord
  2
CENTER
 70
0
  3
Center ____ _ ____ _ ____ _ ____ _ ____ _ ____
 72
65
 73
4
 40
50.799999999999997
 49
31.75
 74
0
 49
-6.3499999999999996
 74
0
 49
6.3499999999999996
 74
0
 49
-6.3499999999999996
 74
0
  0
LTYPE
  5
3E
100
AcDbSymbolTableRecord
100
AcDbLinetypeTableRecord
  2
DIVIDE2
 70
0
  3
Divide (.5x) __..__..__..__..__..__..__..__.._
 72
65
 73
6
 40
15.875
 49
6.3499999999999996
 74
0
 49
-3.1749999999999998
 74
0
 49
0.0
 74
0
 49
-3.1749999999999998
 74
0
 49
0.0
 74
0
 49
-3.1749999999999998
 74
0
  0
LTYPE
  5
3F
100
AcDbSymbolTableRecord
100
AcDbLinetypeTableRecord
  2
DASHED
 70
0
  3
Dashed __ __ __ __ __ __ __ __ __ __ __ __ __ _
 72
65
 73
2
 40
19.050000000000001
 49
12.699999999999999
 74
0
 49
-6.3499999999999996
 74
0
  0
LTYPE
  5
40
100
AcDbSymbolTableRecord
100
AcDbLinetypeTableRecord
  2
DOTX2
 70
0
  3
Dot (2x) .  .  .  .  .  .  .  .  .  .  .  .  .
 72
65
 73
2
 40
12.699999999999999
 49
0.0
 74
0
 49
-12.699999999999999
 74
0
  0
LTYPE
  5
41
100
AcDbSymbolTableRecord
100
AcDbLinetypeTableRecord
  2
DASHEDX2
 70
0
  3
Dashed (2x) ____  ____  ____  ____  ____  ___
 72
65
 73
2
 40
38.100000000000001
 49
25.399999999999999
 74
0
 49
-12.699999999999999
 74
0
  0
LTYPE
  5
42
100
AcDbSymbolTableRecord
100
AcDbLinetypeTableRecord
  2
DOT
 70
0
  3
Dot . . . . . . . . . . . . . . . . . . . . . .
 72
65
 73
2
 40
6.3499999999999996
 49
0.0
 74
0
 49
-6.3499999999999996
 74
0
  0
ENDTAB
  0
TABLE
  2
LAYER
  5
2
100
AcDbSymbolTable
 70
3
  0
LAYER
  5
43
100
AcDbSymbolTableRecord
100
AcDbLayerTableRecord
  2
exp0
 70
0
 62
1
420
16711680
  6
CONTINUOUS
370
-3
390
F
  0
LAYER
  5
44
100
AcDbSymbolTableRecord
100
AcDbLayerTableRecord
  2
0 - dashed
 70
0
 62
7
420
0
  6
DASHED
370
-3
390
F
  0
LAYER
  5
10
100
AcDbSymbolTableRecord
100
AcDbLayerTableRecord
  2
0
 70
0
 62
7
420
16777215
  6
CONTINUOUS
370
25
390
F
  0
ENDTAB
  0
TABLE
  2
STYLE
  5
3
100
AcDbSymbolTable
 70
2
  0
STYLE
  5
45
100
AcDbSymbolTableRecord
100
AcDbTextStyleTableRecord
  2
textstyle0
 70
0
 40
0.0
 41
1.0
 50
0.0
 71
0
 42
1.0
  3

  4

1001
ACAD
1000
Arial
1071
0
  0
STYLE
  5
46
100
AcDbSymbolTableRecord
100
AcDbTextStyleTableRecord
  2
textstyle1
 70
0
 40
0.0
 41
1.0
 50
0.0
 71
0
 42
0.0775001968503937
  3

  4

1001
ACAD
1000
Arial
1071
0
  0
ENDTAB
  0
TABLE
  2
VIEW
  5
6
100
AcDbSymbolTable
 70
0
  0
ENDTAB
  0
TABLE
  2
UCS
  5
7
100
AcDbSymbolTable
 70
0
  0
ENDTAB
  0
TABLE
  2
APPID
  5
9
100
AcDbSymbolTable
 70
1
  0
APPID
  5
47
100
AcDbSymbolTableRecord
100
AcDbRegAppTableRecord
  2
QCAD
 70
0
  0
ENDTAB
  0
TABLE
  2
DIMSTYLE
  5
A
100
AcDbSymbolTable
 70
1
100
AcDbDimStyleTable
 71
0
  0
DIMSTYLE
105
27
100
AcDbSymbolTableRecord
100
AcDbDimStyleTableRecord
  2
Standard
 41
0.125
 42
0.03125
 43
3.75
 44
0.0625
 70
0
 73
0
 74
0
 77
1
 78
8
140
0.125
141
2.5
143
0.03937007874016
147
0.03125
171
3
172
1
271
2
272
2
274
3
278
44
283
0
284
8
340
11
  0
ENDTAB
  0
TABLE
  2
BLOCK_RECORD
  5
1
100
AcDbSymbolTable
 70
1
  0
BLOCK_RECORD
  5
1F
100
AcDbSymbolTableRecord
100
AcDbBlockTableRecord
  2
*Model_Space
340
22
  0
BLOCK_RECORD
  5
1B
100
AcDbSymbolTableRecord
100
AcDbBlockTableRecord
  2
*Paper_Space
340
1E
  0
BLOCK_RECORD
  5
23
100
AcDbSymbolTableRecord
100
AcDbBlockTableRecord
  2
*Paper_Space0
340
26
  0
BLOCK_RECORD
  5
48
100
AcDbSymbolTableRecord
100
AcDbBlockTableRecord
  2
*Model_Space
340
0
  0
BLOCK_RECORD
  5
49
100
AcDbSymbolTableRecord
100
AcDbBlockTableRecord
  2
*Paper_Space
340
0
  0
BLOCK_RECORD
  5
4A
100
AcDbSymbolTableRecord
100
AcDbBlockTableRecord
  2
*Paper_Space0
340
0
  0
ENDTAB
  0
ENDSEC
  0
SECTION
  2
BLOCKS
  0
BLOCK
  5
20
100
AcDbEntity
  8
0
100
AcDbBlockBegin
  2
*Model_Space
 70
0
 10
0.0
 20
0.0
 30
0.0
  3
*Model_Space
  1

  0
BLOCK
  5
1C
100
AcDbEntity
 67
1
  8
0
100
AcDbBlockBegin
  2
*Paper_Space
 70
0
 10
0.0
 20
0.0
 30
0.0
  3
*Paper_Space
  1

  0
ENDBLK
  5
1D
100
AcDbEntity
 67
1
  8
0
100
AcDbBlockEnd
  0
BLOCK
  5
24
100
AcDbEntity
  8
0
100
AcDbBlockBegin
  2
*Paper_Space0
 70
0
 10
0.0
 20
0.0
 30
0.0
  3
*Paper_Space0
  1

  0
ENDBLK
  5
25
100
AcDbEntity
  8
0
100
AcDbBlockEnd
  0
ENDSEC
  0
SECTION
  2
ENTITIES
  0
POINT
  5
4B
100
AcDbEntity
100
AcDbPoint
  8
exp0
 62
256
370
-1
  6
BYLAYER
 10
1.154700538380492
 20
-2.0
 30
0.0
  0
POINT
  5
4C
100
AcDbEntity
100
AcDbPoint
  8
exp0
 62
256
370
-1
  6
BYLAYER
 10
10.1064979196604
 20
-2.0
 30
0.0
  0
POINT
  5
4D
100
AcDbEntity
100
AcDbPoint
  8
exp0
 62
256
370
-1
  6
BYLAYER
 10
-3.3211981522595222
 20
-9.7524839417210991
 30
0.0
  0
POINT
  5
4E
100
AcDbEntity
100
AcDbPoint
  8
exp0
 62
256
370
-1
  6
BYLAYER
 10
0.0
 20
0.0
 30
0.0
  0
POINT
  5
4F
100
AcDbEntity
100
AcDbPoint
  8
exp0
 62
256
370
-1
  6
BYLAYER
 10
0.0
 20
0.0
 30
0.0
  0
DIMENSION
  5
50
100
AcDbEntity
  8
exp0
 62
256
370
-1
  6
BYLAYER
100
AcDbDimension
 10
5.467868994534518
 20
-1.0399606018963699
 30
0.0
 11
5.6305992290204463
 21
-0.9462106018963699
 31
0.0
 70
0
 71
8
 72
2
 41
1.0
 42
0.0
  1

  3
Standard
100
AcDbAlignedDimension
 13
1.154700538380492
 23
-1.9999999999999996
 33
0.0
 14
10.1064979196604
 24
-2.0000000000000084
 34
0.0
 50
0.0
100
AcDbRotatedDimension
1001
ACAD
1000
DSTYLE
1002
{
1070
144
1040
1
1002
}
  0
DIMENSION
  5
51
100
AcDbEntity
  8
exp0
 62
256
370
-1
  6
BYLAYER
100
AcDbDimension
 10
-4.2535596316811164
 20
-9.2141847905951142
 30
0.0
 11
-2.0968001679659061
 21
-5.29106781973457
 31
0.0
 70
1
 71
8
 72
2
 41
1.0
 42
0.0
  1

  3
Standard
100
AcDbAlignedDimension
 13
-3.3211981522595186
 23
-9.7524839417211009
 33
0.0
 14
1.154700538380492
 24
-1.9999999999999996
 34
0.0
1001
ACAD
1000
DSTYLE
1002
{
1070
144
1040
1
1002
}
  0
DIMENSION
  5
52
100
AcDbEntity
  8
exp0
 62
256
370
-1
  6
BYLAYER
100
AcDbDimension
 10
0.0
 20
0.0
 30
0.0
 11
3.5770239720752954
 21
-3.7079662371337307
 31
0.0
 70
4
 71
8
 72
2
 41
1.0
 42
0.0
  1

  3
Standard
100
AcDbRadialDimension
 15
7.0167577021345533
 25
-7.5436338424949705
 35
0.0
 40
0.0
1001
ACAD
1000
DSTYLE
1002
{
1070
144
1040
1
1002
}
  0
POINT
  5
53
100
AcDbEntity
100
AcDbPoint
  8
0
 62
256
370
-1
  6
BYLAYER
 10
-3.3211981522595186
 20
-9.7524839417211009
 30
0.0
  0
POINT
  5
54
100
AcDbEntity
100
AcDbPoint
  8
0
 62
256
370
-1
  6
BYLAYER
 10
1.154700538380492
 20
-1.9999999999999996
 30
0.0
  0
POINT
  5
55
100
AcDbEntity
100
AcDbPoint
  8
0
 62
256
370
-1
  6
BYLAYER
 10
10.1064979196604
 20
-2.0000000000000084
 30
0.0
  0
POINT
  5
56
100
AcDbEntity
100
AcDbPoint
  8
0
 62
256
370
-1
  6
BYLAYER
 10
0.0
 20
0.0
 30
0.0
  0
LINE
  5
57
100
AcDbEntity
100
AcDbLine
  8
0
 62
256
370
-1
  6
BYLAYER
 10
10.1064979196604
 20
-2.0000000000000084
 30
0.0
 11
1.154700538380492
 21
-2.0
 31
0.0
  0
LINE
  5
58
100
AcDbEntity
100
AcDbLine
  8
0
 62
256
370
-1
  6
BYLAYER
 10
1.154700538380492
 20
-2.0
 30
0.0
 11
-3.3211981522595186
 21
-9.7524839417211009
 31
0.0
  0
ARC
  5
59
100
AcDbEntity
  8
0
 62
256
370
-1
  6
BYLAYER
100
AcDbCircle
 10
0.0
 20
0.0
 30
0.0
 40
10.302489999999999
100
AcDbArc
 50
251.19377820434238
 51
348.80622179566819
  0
DIMENSION
  5
5A
100
AcDbEntity
  8
exp0
 62
256
370
-1
  6
BYLAYER
100
AcDbDimension
 10
10.106497919660397
 20
-2.0000000000000084
 30
0.0
 11
5.7779601556543216
 21
-10.007720553699746
 31
0.0
 70
2
 71
8
 72
2
 41
1.0
 42
0.0
  1

  3
Standard
100
AcDb2LineAngularDimension
 13
0.0
 23
0.0
 33
0.0
 14
-3.3211981522595195
 24
-9.7524839417211009
 34
0.0
 15
0.0
 25
0.0
 35
0.0
 16
2.4739504040820037
 26
-11.383953081433786
 36
0.0
  0
LINE
  5
5B
100
AcDbEntity
100
AcDbLine
  8
0
 62
256
370
-1
  6
BYLAYER
 10
21.154700538380492
 20
-1.7320508075688772
 30
0.0
 11
16.67880184774048
 21
-8.4458988435302693
 31
0.0
  0
LINE
  5
5C
100
AcDbEntity
100
AcDbLine
  8
0
 62
256
370
-1
  6
BYLAYER
 10
30.106497919660399
 20
-1.7320508075688845
 30
0.0
 11
21.154700538380492
 21
-1.7320508075688772
 31
0.0
  0
ELLIPSE
  5
5D
100
AcDbEntity
100
AcDbEllipse
  8
0
 62
256
370
-1
  6
BYLAYER
 10
19.999999999999996
 20
-0.0
 30
0.0
 11
10.302489999999999
 21
0.0
 31
0.0
 40
0.8660254037844385
 41
4.3841584901901438
 42
6.0878170217760177
  0
LINE
  5
5E
100
AcDbEntity
100
AcDbLine
  8
0
 62
256
370
-1
  6
BYLAYER
 10
16.678801847740477
 20
-8.4458988435302693
 30
0.0
 11
16.678801847740456
 21
-128.44589884353027
 31
0.0
  0
LINE
  5
5F
100
AcDbEntity
100
AcDbLine
  8
0
 62
256
370
-1
  6
BYLAYER
 10
30.106497919660391
 20
-1.7320508075688898
 30
0.0
 11
30.10649791966037
 21
-121.7320508075689
 31
0.0
  0
LINE
  5
60
100
AcDbEntity
100
AcDbLine
  8
0 - dashed
 62
256
370
-1
  6
BYLAYER
 10
21.154700538380492
 20
-1.7320508075688772
 30
0.0
 11
21.154700538380471
 21
-121.73205080756888
 31
0.0
  0
LINE
  5
61
100
AcDbEntity
100
AcDbLine
  8
0 - dashed
 62
256
370
-1
  6
BYLAYER
 10
30.10649791966037
 20
-121.7320508075689
 30
0.0
 11
21.154700538380471
 21
-121.73205080756888
 31
0.0
  0
LINE
  5
62
100
AcDbEntity
100
AcDbLine
  8
0 - dashed
 62
256
370
-1
  6
BYLAYER
 10
21.154700538380471
 20
-121.73205080756888
 30
0.0
 11
16.678801847740456
 21
-128.44589884353027
 31
0.0
  0
ELLIPSE
  5
63
100
AcDbEntity
100
AcDbEllipse
  8
0
 62
256
370
-1
  6
BYLAYER
 10
19.999999999999996
 20
-120.0
 30
0.0
 11
10.302489999999999
 21
0.0
 31
0.0
 40
0.8660254037844385
 41
4.3841584901901438
 42
6.0878170217760177
  0
DIMENSION
  5
64
100
AcDbEntity
  8
exp0
 62
256
370
-1
  6
BYLAYER
100
AcDbDimension
 10
16.399999999999999
 20
-128.5
 30
0.0
 11
16.306249999999999
 21
-68.445898843530216
 31
0.0
 70
0
 71
8
 72
2
 41
1.0
 42
0.0
  1

  3
Standard
100
AcDbAlignedDimension
 13
16.678801847740477
 23
-8.4458988435302693
 33
0.0
 14
16.678801847740452
 24
-128.44589884353016
 34
0.0
 50
90.0
100
AcDbRotatedDimension
1001
ACAD
1000
DSTYLE
1002
{
1070
144
1040
1
1002
}
  0
MTEXT
  5
65
100
AcDbEntity
100
AcDbMText
  8
exp0
 62
256
370
-1
  6
BYLAYER
 10
-8.0
 20
-14.0
 30
0.0
 40
1.0
 41
0.0
 71
1
 72
1
  1
SYROFOAM MANDREL SHAPE\P\fArial|b1|i0|c0|p0;ALL DIMENSIONS IN CENTIMETERS\P\fArial|b0|i0|c0|p0;ABOVE IS THE SHAPE OF THE TOP\PWE NEED 3 MANDRELS, \PEACH AT LEAST 120 CM LONG
  7
textstyle0
 50
0.0
 73
2
 44
1.0
  0
POINT
  5
66
100
AcDbEntity
100
AcDbPoint
  8
0
 62
256
370
-1
  6
BYLAYER
 10
50.0
 20
0.0
 30
0.0
  0
LINE
  5
67
100
AcDbEntity
100
AcDbLine
  8
0
 62
256
370
-1
  6
BYLAYER
 10
53.978936188842674
 20
-0.7874015748031529
 30
0.0
 11
50.454606511173424
 21
-0.7874015748031495
 31
0.0
  0
LINE
  5
68
100
AcDbEntity
100
AcDbLine
  8
0
 62
256
370
-1
  6
BYLAYER
 10
50.454606511173424
 20
-0.7874015748031495
 30
0.0
 11
48.692441672338774
 21
-3.8395606069768111
 31
0.0
  0
ARC
  5
69
100
AcDbEntity
  8
0
 62
256
370
-1
  6
BYLAYER
100
AcDbCircle
 10
50.0
 20
0.0
 30
0.0
 40
4.0560984251968497
100
AcDbArc
 50
251.19377820434238
 51
348.80622179566819
  0
DIMENSION
  5
6A
100
AcDbEntity
  8
exp0
 62
256
370
-1
  6
BYLAYER
100
AcDbDimension
 10
53.978936188842674
 20
-0.7874015748031529
 30
0.0
 11
52.246367187265477
 21
-3.8908221007985726
 31
0.0
 70
2
 71
8
 72
2
 41
1.0
 42
0.0
  1

  3
Standard
100
AcDb2LineAngularDimension
 13
50.0
 23
0.0
 33
0.0
 14
48.692441672338774
 24
-3.8395606069768111
 34
0.0
 15
50.0
 25
0.0
 35
0.0
 16
50.973996222079528
 26
-4.4818712919030652
 36
0.0
  0
MTEXT
  5
6B
100
AcDbEntity
100
AcDbMText
  8
exp0
 62
256
370
-1
  6
BYLAYER
 10
46.8503937007874
 20
-5.5118110236220463
 30
0.0
 40
0.0775001968503937
 41
0.0
 71
1
 72
1
  1
\H0.309337;SYROFOAM MANDREL SHAPE\P\fArial|b1|i0|c0|p0;ALL DIMENSIONS IN INCHES\P\fArial|b0|i0|c0|p0;ABOVE IS THE SHAPE OF THE TOP\PWE NEED 3 MANDRELS, \PEACH AT LEAST 48 IN LONG
  7
textstyle1
 50
0.0
 73
2
 44
1.0
  0
POINT
  5
6C
100
AcDbEntity
100
AcDbPoint
  8
exp0
 62
256
370
-1
  6
BYLAYER
 10
50.454606511173424
 20
-0.7874015748031495
 30
0.0
  0
POINT
  5
6D
100
AcDbEntity
100
AcDbPoint
  8
exp0
 62
256
370
-1
  6
BYLAYER
 10
53.978936188842674
 20
-0.7874015748031495
 30
0.0
  0
POINT
  5
6E
100
AcDbEntity
100
AcDbPoint
  8
exp0
 62
256
370
-1
  6
BYLAYER
 10
48.692441672338774
 20
-3.8395606069768102
 30
0.0
  0
POINT
  5
6F
100
AcDbEntity
100
AcDbPoint
  8
exp0
 62
256
370
-1
  6
BYLAYER
 10
50.0
 20
0.0
 30
0.0
  0
POINT
  5
70
100
AcDbEntity
100
AcDbPoint
  8
exp0
 62
256
370
-1
  6
BYLAYER
 10
50.0
 20
0.0
 30
0.0
  0
DIMENSION
  5
71
100
AcDbEntity
  8
exp0
 62
256
370
-1
  6
BYLAYER
100
AcDbDimension
 10
52.152704328556894
 20
-0.4094333078332165
 30
0.0
 11
52.216771350008045
 21
-0.3156833078332165
 31
0.0
 70
0
 71
8
 72
2
 41
1.0
 42
0.0
  1

  3
Standard
100
AcDbAlignedDimension
 13
50.454606511173424
 23
-0.7874015748031493
 33
0.0
 14
53.978936188842674
 24
-0.7874015748031529
 34
0.0
 50
0.0
100
AcDbRotatedDimension
1001
ACAD
1000
DSTYLE
1002
{
1070
144
1040
1
1002
}
  0
DIMENSION
  5
72
100
AcDbEntity
  8
exp0
 62
256
370
-1
  6
BYLAYER
100
AcDbDimension
 10
48.325370223747591
 20
-3.6276318073209088
 30
0.0
 11
49.125262761560123
 21
-2.0546772912340852
 31
0.0
 70
1
 71
8
 72
2
 41
1.0
 42
0.0
  1

  3
Standard
100
AcDbAlignedDimension
 13
48.692441672338774
 23
-3.8395606069768111
 33
0.0
 14
50.454606511173424
 24
-0.7874015748031493
 34
0.0
1001
ACAD
1000
DSTYLE
1002
{
1070
144
1040
1
1002
}
  0
DIMENSION
  5
73
100
AcDbEntity
  8
exp0
 62
256
370
-1
  6
BYLAYER
100
AcDbDimension
 10
50.0
 20
0.0
 30
0.0
 11
51.787271829871379
 21
-0.9630327498944806
 31
0.0
 70
4
 71
8
 72
2
 41
1.0
 42
0.0
  1

  3
Standard
100
AcDbRadialDimension
 15
53.478075705600098
 25
-2.086845423360062
 35
0.0
 40
0.0
1001
ACAD
1000
DSTYLE
1002
{
1070
144
1040
1
1002
}
  0
POINT
  5
74
100
AcDbEntity
100
AcDbPoint
  8
0
 62
256
370
-1
  6
BYLAYER
 10
48.692441672338774
 20
-3.8395606069768111
 30
0.0
  0
POINT
  5
75
100
AcDbEntity
100
AcDbPoint
  8
0
 62
256
370
-1
  6
BYLAYER
 10
50.454606511173424
 20
-0.7874015748031493
 30
0.0
  0
POINT
  5
76
100
AcDbEntity
100
AcDbPoint
  8
0
 62
256
370
-1
  6
BYLAYER
 10
53.978936188842674
 20
-0.7874015748031529
 30
0.0
  0
DIMENSION
  5
77
100
AcDbEntity
  8
exp0
 62
256
370
-1
  6
BYLAYER
100
AcDbDimension
 10
48.692441672338774
 20
-3.8395606069768111
 30
0.0
 11
49.749666899335779
 21
0.4335896491674185
 31
0.0
 70
2
 71
8
 72
2
 41
1.0
 42
0.0
  1

  3
Standard
100
AcDb2LineAngularDimension
 13
53.978936188842674
 23
-0.7874015748031529
 33
0.0
 14
50.454606511173424
 24
-0.7874015748031495
 34
0.0
 15
50.454606511173424
 25
-0.7874015748031495
 35
0.0
 16
49.399999999999999
 26
0.0
 36
0.0
  0
CIRCLE
  5
78
100
AcDbEntity
100
AcDbCircle
  8
0
 62
256
370
-1
  6
BYLAYER
 10
51.241327861886219
 20
-2.1500429256366722
 30
0.0
 40
1.0
  0
DIMENSION
  5
79
100
AcDbEntity
  8
exp0
 62
256
370
-1
  6
BYLAYER
100
AcDbDimension
 10
49.954606511173502
 20
-1.6534269785876314
 30
0.0
 11
50.598064667806717
 21
-1.8012823310446708
 31
0.0
 70
1
 71
8
 72
2
 41
1.0
 42
0.0
  1

  3
Standard
100
AcDbAlignedDimension
 13
49.954606511173502
 23
-1.6534269785876319
 33
0.0
 14
50.308401481305701
 24
-1.7899757535466141
 34
0.0
1001
ACAD
1000
DSTYLE
1002
{
1070
144
1040
1
1002
}
  0
LINE
  5
7A
100
AcDbEntity
100
AcDbLine
  8
0
 62
256
370
-1
  6
BYLAYER
 10
50.454606511173417
 20
-0.7874015748031197
 30
0.0
 11
50.741327861886212
 21
-1.2840175218522336
 31
0.0
  0
POINT
  5
7B
100
AcDbEntity
100
AcDbPoint
  8
0
 62
256
370
-1
  6
BYLAYER
 10
51.741327861886099
 20
-3.0160683294211812
 30
0.0
  0
DIMENSION
  5
7C
100
AcDbEntity
  8
exp0
 62
256
370
-1
  6
BYLAYER
100
AcDbDimension
 10
50.741327861886148
 20
-1.2840175218522745
 30
0.0
 11
51.322517743490913
 21
-2.1031679256367299
 31
0.0
 70
1
 71
8
 72
2
 41
1.0
 42
0.0
  1

  3
Standard
100
AcDbAlignedDimension
 13
50.741327861886148
 23
-1.2840175218522745
 33
0.0
 14
51.741327861886099
 24
-3.0160683294211812
 34
0.0
1001
ACAD
1000
DSTYLE
1002
{
1070
144
1040
1
1002
}
  0
DIMENSION
  5
7D
100
AcDbEntity
  8
exp0
 62
256
370
-1
  6
BYLAYER
100
AcDbDimension
 10
51.741327861886255
 20
-3.0160683294210937
 30
0.0
 11
51.965878418847304
 21
-3.2175013029457489
 31
0.0
 70
1
 71
8
 72
2
 41
1.0
 42
0.0
  1

  3
Standard
100
AcDbAlignedDimension
 13
51.741327861886255
 23
-3.0160683294210937
 33
0.0
 14
52.028049212598745
 24
-3.5126842764703419
 34
0.0
1001
ACAD
1000
DSTYLE
1002
{
1070
144
1040
1
1002
}
  0
DIMENSION
  5
7E
100
AcDbEntity
  8
exp0
 62
256
370
-1
  6
BYLAYER
100
AcDbDimension
 10
50.543918047046184
 20
-0.7358375355252621
 30
0.0
 11
50.768468604007339
 21
-0.937270509049808
 31
0.0
 70
1
 71
8
 72
2
 41
1.0
 42
0.0
  1

  3
Standard
100
AcDbAlignedDimension
 13
50.454606511173431
 23
-0.7874015748031493
 33
0.0
 14
50.741327861886177
 24
-1.2840175218522607
 34
0.0
1001
ACAD
1000
DSTYLE
1002
{
1070
144
1040
1
1002
}
  0
ENDSEC
  0
SECTION
  2
OBJECTS
  0
DICTIONARY
  5
C
100
AcDbDictionary
280
0
281
1
  3
ACAD_GROUP
350
D
  3
ACAD_LAYOUT
350
1A
  3
ACAD_MLINESTYLE
350
17
  3
ACAD_PLOTSETTINGS
350
19
  3
ACAD_PLOTSTYLENAME
350
E
  3
AcDbVariableDictionary
350
7F
  3
QCAD_OBJECTS
350
80
  0
DICTIONARY
  5
D
100
AcDbDictionary
280
0
281
1
  0
ACDBDICTIONARYWDFLT
  5
E
100
AcDbDictionary
281
1
  3
Normal
350
F
100
AcDbDictionaryWithDefault
340
F
  0
ACDBPLACEHOLDER
  5
F
  0
DICTIONARY
  5
17
100
AcDbDictionary
280
0
281
1
  3
Standard
350
18
  0
MLINESTYLE
  5
18
100
AcDbMlineStyle
  2
STANDARD
 70
0
  3

 62
256
 51
90.0
 52
90.0
 71
2
 49
0.5
 62
256
  6
BYLAYER
 49
-0.5
 62
256
  6
BYLAYER
  0
DICTIONARY
  5
19
100
AcDbDictionary
280
0
281
1
  0
DICTIONARY
  5
1A
100
AcDbDictionary
281
1
  3
Layout1
350
1E
  3
Layout2
350
26
  3
Model
350
22
  0
LAYOUT
  5
1E
100
AcDbPlotSettings
  1

  2
C:\Program Files\AutoCAD 2002\plotters\DWF ePlot (optimized for plotting).pc3
  4

  6

 40
0.0
 41
0.0
 42
0.0
 43
0.0
 44
0.0
 45
0.0
 46
0.0
 47
0.0
 48
0.0
 49
0.0
140
0.0
141
0.0
142
1.0
143
1.0
 70
688
 72
0
 73
0
 74
5
  7

 75
16
147
1.0
148
0.0
149
0.0
100
AcDbLayout
  1
Layout1
 70
1
 71
1
 10
0.0
 20
0.0
 11
420.0
 21
297.0
 12
0.0
 22
0.0
 32
0.0
 14
100000000000000000000.0
 24
100000000000000000000.0
 34
100000000000000000000.0
 15
-100000000000000000000.0
 25
-100000000000000000000.0
 35
-100000000000000000000.0
146
0.0
 13
0.0
 23
0.0
 33
0.0
 16
1.0
 26
0.0
 36
0.0
 17
0.0
 27
1.0
 37
0.0
 76
0
330
1B
  0
LAYOUT
  5
22
100
AcDbPlotSettings
  1

  2
C:\Program Files\AutoCAD 2002\plotters\DWF ePlot (optimized for plotting).pc3
  4

  6

 40
0.0
 41
0.0
 42
0.0
 43
0.0
 44
0.0
 45
0.0
 46
0.0
 47
0.0
 48
0.0
 49
0.0
140
0.0
141
0.0
142
1.0
143
1.0
 70
1712
 72
0
 73
0
 74
0
  7

 75
0
147
1.0
148
0.0
149
0.0
100
AcDbLayout
  1
Model
 70
1
 71
0
 10
0.0
 20
0.0
 11
12.0
 21
9.0
 12
0.0
 22
0.0
 32
0.0
 14
0.0
 24
0.0
 34
0.0
 15
0.0
 25
0.0
 35
0.0
146
0.0
 13
0.0
 23
0.0
 33
0.0
 16
1.0
 26
0.0
 36
0.0
 17
0.0
 27
1.0
 37
0.0
 76
0
330
1F
  0
LAYOUT
  5
26
100
AcDbPlotSettings
  1

  2
C:\Program Files\AutoCAD 2002\plotters\DWF ePlot (optimized for plotting).pc3
  4

  6

 40
0.0
 41
0.0
 42
0.0
 43
0.0
 44
0.0
 45
0.0
 46
0.0
 47
0.0
 48
0.0
 49
0.0
140
0.0
141
0.0
142
1.0
143
1.0
 70
688
 72
0
 73
0
 74
5
  7

 75
16
147
1.0
148
0.0
149
0.0
100
AcDbLayout
  1
Layout2
 70
1
 71
2
 10
0.0
 20
0.0
 11
12.0
 21
9.0
 12
0.0
 22
0.0
 32
0.0
 14
0.0
 24
0.0
 34
0.0
 15
0.0
 25
0.0
 35
0.0
146
0.0
 13
0.0
 23
0.0
 33
0.0
 16
1.0
 26
0.0
 36
0.0
 17
0.0
 27
1.0
 37
0.0
 76
0
330
23
  0
DICTIONARY
  5
7F
100
AcDbDictionary
281
1
  3
DIMASSOC
350
82
  3
HIDETEXT
350
81
  0
DICTIONARYVAR
  5
81
100
DictionaryVariables
280
0
  1
2
  0
DICTIONARYVAR
  5
82
100
DictionaryVariables
280
0
  1
1
  0
DICTIONARY
  5
80
100
AcDbDictionary
281
1
  3
DimensionSettings/AngularFormat
350
83
  3
DimensionSettings/AngularPrecision
350
84
  3
DimensionSettings/KeepProportions
350
85
  3
DimensionSettings/LinearFormat
350
86
  3
DimensionSettings/LinearPrecision
350
87
  3
Grid/DisplayGrid00
350
88
  3
Grid/DisplayGrid01
350
89
  3
Grid/DisplayGrid02
350
8A
  3
Grid/DisplayGrid03
350
8B
  3
Grid/GridSpacingX00
350
8C
  3
Grid/GridSpacingX01
350
8D
  3
Grid/GridSpacingX02
350
8E
  3
Grid/GridSpacingX03
350
8F
  3
Grid/GridSpacingY00
350
90
  3
Grid/GridSpacingY01
350
91
  3
Grid/GridSpacingY02
350
92
  3
Grid/GridSpacingY03
350
93
  3
Grid/IsometricGrid00
350
94
  3
Grid/IsometricGrid01
350
95
  3
Grid/IsometricGrid02
350
96
  3
Grid/IsometricGrid03
350
97
  3
Grid/IsometricProjection00
350
98
  3
Grid/IsometricProjection01
350
99
  3
Grid/IsometricProjection02
350
9A
  3
Grid/IsometricProjection03
350
9B
  3
Grid/MetaGridSpacingX00
350
9C
  3
Grid/MetaGridSpacingX01
350
9D
  3
Grid/MetaGridSpacingX02
350
9E
  3
Grid/MetaGridSpacingX03
350
9F
  3
Grid/MetaGridSpacingY00
350
A0
  3
Grid/MetaGridSpacingY01
350
A1
  3
Grid/MetaGridSpacingY02
350
A2
  3
Grid/MetaGridSpacingY03
350
A3
  3
MultiPageSettings/Columns
350
A4
  3
MultiPageSettings/GlueMarginsBottom
350
A5
  3
MultiPageSettings/GlueMarginsLeft
350
A6
  3
MultiPageSettings/GlueMarginsRight
350
A7
  3
MultiPageSettings/GlueMarginsTop
350
A8
  3
MultiPageSettings/PrintCropMarks
350
A9
  3
MultiPageSettings/Rows
350
AA
  3
PageSettings/OffsetX
350
AB
  3
PageSettings/OffsetY
350
AC
  3
PageSettings/PageOrientation
350
AD
  3
PageSettings/PaperHeight
350
AE
  3
PageSettings/PaperWidth
350
AF
  3
PageSettings/Scale
350
B0
  3
PageSettings/ShowPaperBorders
350
B1
  3
UnitSettings/PaperUnit
350
B2
  0
XRECORD
  5
83
330
80
100
AcDbXrecord
280
1
 40
0.0
  0
XRECORD
  5
84
330
80
100
AcDbXrecord
280
1
 40
4.0
  0
XRECORD
  5
85
330
80
100
AcDbXrecord
280
1
290
1
  0
XRECORD
  5
86
330
80
100
AcDbXrecord
280
1
 40
2.0
  0
XRECORD
  5
87
330
80
100
AcDbXrecord
280
1
 40
4.0
  0
XRECORD
  5
88
330
80
100
AcDbXrecord
280
1
290
1
  0
XRECORD
  5
89
330
80
100
AcDbXrecord
280
1
290
1
  0
XRECORD
  5
8A
330
80
100
AcDbXrecord
280
1
290
1
  0
XRECORD
  5
8B
330
80
100
AcDbXrecord
280
1
290
1
  0
XRECORD
  5
8C
330
80
100
AcDbXrecord
280
1
1000
auto
  0
XRECORD
  5
8D
330
80
100
AcDbXrecord
280
1
1000
auto
  0
XRECORD
  5
8E
330
80
100
AcDbXrecord
280
1
1000
auto
  0
XRECORD
  5
8F
330
80
100
AcDbXrecord
280
1
1000
auto
  0
XRECORD
  5
90
330
80
100
AcDbXrecord
280
1
1000
auto
  0
XRECORD
  5
91
330
80
100
AcDbXrecord
280
1
1000
auto
  0
XRECORD
  5
92
330
80
100
AcDbXrecord
280
1
1000
auto
  0
XRECORD
  5
93
330
80
100
AcDbXrecord
280
1
1000
auto
  0
XRECORD
  5
94
330
80
100
AcDbXrecord
280
1
290
0
  0
XRECORD
  5
95
330
80
100
AcDbXrecord
280
1
290
0
  0
XRECORD
  5
96
330
80
100
AcDbXrecord
280
1
290
0
  0
XRECORD
  5
97
330
80
100
AcDbXrecord
280
1
290
0
  0
XRECORD
  5
98
330
80
100
AcDbXrecord
280
1
 90
0
  0
XRECORD
  5
99
330
80
100
AcDbXrecord
280
1
 90
0
  0
XRECORD
  5
9A
330
80
100
AcDbXrecord
280
1
 90
0
  0
XRECORD
  5
9B
330
80
100
AcDbXrecord
280
1
 90
0
  0
XRECORD
  5
9C
330
80
100
AcDbXrecord
280
1
1000
auto
  0
XRECORD
  5
9D
330
80
100
AcDbXrecord
280
1
1000
auto
  0
XRECORD
  5
9E
330
80
100
AcDbXrecord
280
1
1000
auto
  0
XRECORD
  5
9F
330
80
100
AcDbXrecord
280
1
1000
auto
  0
XRECORD
  5
A0
330
80
100
AcDbXrecord
280
1
1000
auto
  0
XRECORD
  5
A1
330
80
100
AcDbXrecord
280
1
1000
auto
  0
XRECORD
  5
A2
330
80
100
AcDbXrecord
280
1
1000
auto
  0
XRECORD
  5
A3
330
80
100
AcDbXrecord
280
1
1000
auto
  0
XRECORD
  5
A4
330
80
100
AcDbXrecord
280
1
 90
1
  0
XRECORD
  5
A5
330
80
100
AcDbXrecord
280
1
 40
0.0
  0
XRECORD
  5
A6
330
80
100
AcDbXrecord
280
1
 40
0.0
  0
XRECORD
  5
A7
330
80
100
AcDbXrecord
280
1
 40
0.0
  0
XRECORD
  5
A8
330
80
100
AcDbXrecord
280
1
 40
0.0
  0
XRECORD
  5
A9
330
80
100
AcDbXrecord
280
1
290
0
  0
XRECORD
  5
AA
330
80
100
AcDbXrecord
280
1
 90
1
  0
XRECORD
  5
AB
330
80
100
AcDbXrecord
280
1
 40
46.488527986081699
  0
XRECORD
  5
AC
330
80
100
AcDbXrecord
280
1
 40
-9.8657692642689643
  0
XRECORD
  5
AD
330
80
100
AcDbXrecord
280
1
1000
Portrait
  0
XRECORD
  5
AE
330
80
100
AcDbXrecord
280
1
 40
297.0
  0
XRECORD
  5
AF
330
80
100
AcDbXrecord
280
1
 40
210.0
  0
XRECORD
  5
B0
330
80
100
AcDbXrecord
280
1
1000
2.5:1
  0
XRECORD
  5
B1
330
80
100
AcDbXrecord
280
1
290
1
  0
XRECORD
  5
B2
330
80
100
AcDbXrecord
280
1
 90
4
  0
ENDSEC
  0
EOF
